<?xml version="1.0" standalone="no"?> <!DOCTYPE svg PUBLIC "-//W3C//DTD SVG 1.0//EN" "http://www.w3.org/TR/2001/REC-SVG-20010904/DTD/svg10.dtd" > <svg xmlns="http://www.w3.org/2000/svg" width="100%" height="100%">
<defs >
<font id="pragbold" horiz-adv-x="597" ><font-face
    font-family="Pragmatica Web Bold"
    units-per-em="1000"
    panose-1="2 11 7 3 4 5 2 2 2 4"
    ascent="993"
    descent="-352"
    alphabetic="0" />
<missing-glyph horiz-adv-x="364" d="M33 0V666H298V0H33ZM66 33H265V633H66V33Z" />
<glyph unicode=" " glyph-name="space" horiz-adv-x="233" />
<glyph unicode="!" glyph-name="exclam" horiz-adv-x="390" d="M109 158H275V0H109V158ZM278 700V517L235 225H149L106 517V700H278Z" />
<glyph unicode="&quot;" glyph-name="quotedbl" horiz-adv-x="501" d="M388 508H322L269 700H441L388 508ZM176 508H110L57 700H229L176 508Z" />
<glyph unicode="#" glyph-name="numbersign" horiz-adv-x="650" d="M404 430H271L247 277H380L404 430ZM339 10L362 165H229L206 10H126L149 165H15L33 277H167L191 430H57L74 542H208L232 695H312L288 542H421L445 695H525L501 542H635L618 430H484L460 277H594L576
165H442L419 10H339Z" />
<glyph unicode="$" glyph-name="dollar" horiz-adv-x="650" d="M293 600Q251 598 231 577T210 520Q210 499 218 485T238 461T265 448T293 442V600ZM369 103Q389 104 404 113T431 136T448 167T454 202Q454 238 431 258T369 285V103ZM184 225Q192 168 217 137T293
103V297Q239 309 196 325T121 367T74 429T57 515Q57 584 83 625T146 687T223 715T293 720V778H369V720Q444 719 488 696T555 641T586 572T593 507H444Q445 523 442 538T429 566T405 588T369 600V427Q436 411 481 390T555 341T595 278T607 199Q607 151 594 117T561
58T514 19T461 -4T410 -16T369 -20V-95H293V-20Q228 -19 181 -3T104 43T57 119T35 225H184Z" />
<glyph unicode="%" glyph-name="percent" horiz-adv-x="957" d="M639 187Q639 126 662 96T717 66Q729 66 742 71T767 91T787 128T795 187Q795 196 793 216T783 256T760 292T717 308Q704 308 690 302T665 281T647 243T639 187ZM533 187Q533 214 541 249T569 314T625
366T717 387Q772 387 808 366T864 315T893 249T901 187Q901 123 880 84T830 23T770 -6T717 -13Q696 -13 665 -6T604 22T554 83T533 187ZM158 513Q158 480 165 457T184 420T209 399T236 392Q249 392 263 398T288 419T306 457T314 513Q314 549 306 572T287 609T262
628T236 634Q224 634 211 629T186 609T166 572T158 513ZM53 513Q53 577 73 616T123 677T183 706T236 713Q257 713 288 706T349 677T399 616T420 513Q420 454 402 416T356 354T296 322T236 313Q213 313 182 320T122 349T73 410T53 513ZM648 700H751L305 0H202L648
700Z" />
<glyph unicode="&amp;" glyph-name="ampersand" horiz-adv-x="701" d="M322 457Q336 463 350 471T375 490T393 517T400 550Q400 569 393 581T376 601T355 610T335 613Q327 613 316 611T295 601T278 581T271 549Q271 523 285 502T322 457ZM276 310Q249 299 233
285T209 256T198 227T195 203Q195 193 199 177T214 145T245 118T297 107Q325 107 355 118T403 152L276 310ZM648 323Q643 291 628 251T572 156L701 0H525L474 63Q452 39 426 23T373 -2T317 -16T263 -20Q201 -20 159 0T90 51T52 120T40 193Q40 234 50 264T80 319T130
364T200 407Q163 447 153 478T142 544Q142 584 156 616T197 672T258 707T335 720Q371 720 403 709T460 676T498 621T513 543Q513 523 509 501T492 457T456 413T393 372L491 256Q504 279 508 296T515 323H648Z" />
<glyph unicode="&apos;" glyph-name="quotesingle" horiz-adv-x="289" d="M176 508H110L57 700H229L176 508Z" />
<glyph unicode="(" glyph-name="parenleft" horiz-adv-x="398" d="M342 700Q320 647 300 593T264 483T239 371T230 258Q230 201 239 144T263 32T299 -78T342 -185H227Q194 -126 167 -74T120 31T90 138T79 258Q79 322 89 377T119 484T166 588T227 700H342Z" />
<glyph unicode=")" glyph-name="parenright" horiz-adv-x="400" d="M53 -185Q103 -67 133 41T164 258Q164 313 155 370T131 483T95 594T53 700H167Q213 628 242 566T287 449T310 347T316 258Q316 216 310 169T288 67T242 -50T167 -185H53Z" />
<glyph unicode="*" glyph-name="asterisk" horiz-adv-x="485" d="M170 395L110 442L178 534L70 571L94 642L204 605V720H278V605L387 642L411 571L303 534L372 442L311 395L241 491L170 395Z" />
<glyph unicode="+" glyph-name="plus" horiz-adv-x="675" d="M296 390V633H376V390H619V310H376V67H296V310H53V390H296Z" />
<glyph unicode="," glyph-name="comma" horiz-adv-x="383" d="M106 158H271V0Q271 -17 268 -46T248 -104T199 -154T106 -177V-98Q118 -98 132 -94T160 -80T183 -52T192 -6V0H106V158Z" />
<glyph unicode="-" glyph-name="hyphen" horiz-adv-x="452" d="M79 330H368V205H79V330Z" />
<glyph unicode="." glyph-name="period" horiz-adv-x="383" d="M106 158H271V0H106V158Z" />
<glyph unicode="/" glyph-name="slash" horiz-adv-x="447" d="M367 700H447L80 -185H0L367 700Z" />
<glyph unicode="0" glyph-name="zero" horiz-adv-x="650" d="M325 102Q369 102 394 126T432 187T448 267T451 350Q451 389 448 432T433 513T395 574T325 598Q282 598 257 574T219 512T203 432T199 350Q199 312 202 269T219 188T257 127T325 102ZM325 -20Q312 -20
286 -18T229 -5T164 29T103 93T59 196T41 350Q41 441 58 503T103 607T163 671T228 705T286 718T325 720Q338 720 364 718T421 705T486 671T546 607T591 504T609 350Q609 259 592 197T547 93T486 29T422 -5T364 -18T325 -20Z" />
<glyph unicode="1" glyph-name="one" horiz-adv-x="650" d="M116 575H137Q163 575 193 582T250 606T297 645T322 700H446V0H281V492H116V575Z" />
<glyph unicode="2" glyph-name="two" horiz-adv-x="650" d="M593 0H57V28Q57 62 64 92T90 152T143 213T234 283Q283 317 321 341T385 387T424 434T438 493Q438 521 429 541T405 573T369 592T326 598Q272 598 240 567T207 483V458H54V479Q54 517 66 559T109 637T194
696T332 720Q340 720 362 719T414 712T475 692T533 654T577 592T594 500Q594 466 586 435T557 373T499 311T403 245Q375 229 352 216T311 188T277 158T251 122H593V0Z" />
<glyph unicode="3" glyph-name="three" horiz-adv-x="650" d="M193 241Q193 218 198 194T219 149T259 115T322 102Q364 102 388 115T424 146T439 182T442 209Q442 224 438 241T422 272T389 296T332 305H262V420H315Q328 420 347 422T385 432T415 458T428 508Q428
521 423 537T406 566T372 589T316 598Q295 598 275 594T239 575T213 536T203 469H56Q56 494 59 522T74 578T104 632T152 677T224 708T324 720Q401 720 450 701T526 652T564 588T575 522Q575 481 562 453T529 407T488 380T450 367V364Q477 361 503 351T551 320T585
269T598 194Q598 144 582 109T541 50T484 12T423 -9T368 -18T328 -20Q318 -20 292 -19T233 -12T165 10T102 55T55 129T38 241H193Z" />
<glyph unicode="4" glyph-name="four" horiz-adv-x="650" d="M364 279V543L158 279H364ZM33 157V283L363 700H529V279H614V157H529V0H364V157H33Z" />
<glyph unicode="5" glyph-name="five" horiz-adv-x="650" d="M206 203Q208 186 214 168T234 135T269 110T323 100Q365 100 389 117T425 159T439 207T442 244Q442 278 432 302T406 343T368 367T326 375Q314 375 299 373T269 365T241 350T218 325H63L108 700H555V578H215L195
426Q203 432 217 440T251 457T300 470T363 476Q418 476 461 459T535 411T582 337T598 242Q598 192 583 145T534 62T447 3T319 -20Q238 -20 187 3T106 60T64 133T50 203H206Z" />
<glyph unicode="6" glyph-name="six" horiz-adv-x="650" d="M198 241Q198 214 206 189T231 144T272 114T329 102Q360 102 384 113T424 142T448 186T456 238Q456 301 420 337T327 373Q303 373 280 366T239 342T210 301T198 241ZM451 535Q444 556 430 568T398 587T363
596T334 598Q297 598 272 584T231 546T208 489T198 419Q258 481 353 481Q396 481 440 468T520 427T578 353T601 242Q601 201 590 155T549 70T468 6T338 -20Q320 -20 291 -18T230 -5T165 28T106 91T64 194T47 346Q47 364 49 399T59 475T86 560T137 639T220 697T342
720Q410 720 455 702T529 657T572 597T593 535H451Z" />
<glyph unicode="7" glyph-name="seven" horiz-adv-x="650" d="M34 700H613V584Q571 545 539 507T482 433T440 365T411 307Q397 275 384 237T362 158T347 77T342 0H170Q175 76 195 150T242 281Q251 300 267 330T308 399T369 481T450 569V578H34V700Z" />
<glyph unicode="8" glyph-name="eight" horiz-adv-x="650" d="M324 418Q357 418 379 426T414 448T434 479T440 513Q440 553 408 575T324 598Q301 598 281 594T244 579T218 553T208 513Q208 483 219 465T248 436T286 422T324 418ZM324 102Q363 102 388 112T429
139T450 175T456 213Q456 226 452 245T434 282T394 312T324 325Q280 325 254 313T214 282T196 245T192 213Q192 195 198 176T219 140T259 113T324 102ZM165 373Q119 389 91 428T63 523Q63 554 75 588T116 652T196 701T324 720Q390 720 439 705T521 663T569 600T585
523Q585 468 557 429T482 373Q542 350 575 309T608 200Q608 185 605 163T593 116T565 67T515 24T437 -8T324 -20Q258 -20 212 -8T133 23T83 67T55 115T43 162T40 200Q40 267 72 308T165 373Z" />
<glyph unicode="9" glyph-name="nine" horiz-adv-x="650" d="M450 458Q450 470 446 493T428 540T388 580T319 598Q284 598 260 586T221 553T199 509T192 460Q192 397 228 361T320 325Q356 325 381 337T421 368T443 411T450 458ZM204 164Q212 132 244 117T315 102Q342
102 365 111T406 140T435 195T450 280Q441 271 428 261T396 240T352 224T295 217Q241 217 196 234T117 283T66 359T47 456Q47 497 58 543T100 629T183 694T317 720Q334 720 362 718T421 706T485 673T543 612T585 513T601 366Q601 347 599 311T588 233T561 145T510
64T428 4T308 -20Q242 -20 198 -2T125 44T82 104T61 164H204Z" />
<glyph unicode=":" glyph-name="colon" horiz-adv-x="383" d="M106 158H271V0H106V158ZM106 508H271V350H106V508Z" />
<glyph unicode=";" glyph-name="semicolon" horiz-adv-x="383" d="M106 158H271V0Q271 -17 268 -46T248 -104T199 -154T106 -177V-98Q118 -98 132 -94T160 -80T183 -52T192 -6V0H106V158ZM106 508H271V350H106V508Z" />
<glyph unicode="&lt;" glyph-name="less" horiz-adv-x="648" d="M588 92L547 22L41 315V399L547 692L588 622L127 357L588 92Z" />
<glyph unicode="=" glyph-name="equal" horiz-adv-x="675" d="M619 290V210H53V290H619ZM619 490V410H53V490H619Z" />
<glyph unicode="&gt;" glyph-name="greater" horiz-adv-x="648" d="M60 622L101 692L607 399V315L101 22L60 92L521 357L60 622Z" />
<glyph unicode="?" glyph-name="question" horiz-adv-x="584" d="M40 477Q38 555 63 601T126 672T210 704T294 712Q349 712 395 701T473 667T524 610T542 528Q542 490 531 463T504 414T467 378T429 351Q412 340 396 329T367 304T349 270T345 225H219V252Q219 282
225 304T240 344T262 373T286 396Q300 407 317 418T350 444T375 477T385 520Q385 556 361 576T292 597Q285 597 268 595T233 582T204 546T194 477H40ZM199 158H365V0H199V158Z" />
<glyph unicode="@" glyph-name="at" horiz-adv-x="837" d="M490 337Q490 370 484 392T466 428T439 448T407 454Q371 454 346 426T321 337Q321 325 323 305T335 266T360 234T406 220Q407 220 420 222T449 235T477 269T490 337ZM611 34Q565 5 521 -7T417 -20Q324
-20 255 10T139 91T70 209T47 350Q47 432 75 500T154 617T271 693T417 720Q495 720 562 697T680 628T758 517T787 366Q787 325 775 285T740 214T681 162T601 142Q563 142 544 153T516 182Q504 164 485 155T447 141T414 137T396 136Q346 136 312 153T257 199T227
264T218 337Q218 378 230 414T264 479T318 523T390 539Q411 539 440 534T492 505L493 525H592V271Q592 242 597 234T617 226Q641 226 657 238T684 271T700 316T705 366Q705 440 680 492T613 579T521 628T417 644Q349 644 296 620T206 555T149 461T129 350Q129 286
149 232T208 139T299 78T417 56Q465 56 502 68T573 104L611 34Z" />
<glyph unicode="A" glyph-name="A" horiz-adv-x="673" d="M427 250L337 517L245 250H427ZM420 700L683 0H508L463 131H209L165 0H-9L253 700H420Z" />
<glyph unicode="B" glyph-name="B" horiz-adv-x="727" d="M240 136H411Q422 136 437 139T467 151T492 175T502 215Q502 240 493 255T469 280T433 292T390 295H240V136ZM240 424H392Q417 424 433 431T458 450T470 473T474 496Q474 507 471 519T457 541T430 557T385
564H240V424ZM426 700Q495 700 537 683T602 640T634 582T642 522Q642 461 610 427T527 376V375Q547 371 573 361T622 330T660 277T676 196Q676 133 652 95T589 35T503 7T408 0H75V700H426Z" />
<glyph unicode="C" glyph-name="C" horiz-adv-x="731" d="M703 247Q699 208 684 161T633 74T538 7T385 -20Q318 -20 256 -3T147 55T71 165T42 337Q42 429 62 493T114 600T185 667T261 703T330 717T379 720Q472 720 532 694T628 630T678 546T695 462H533Q527 506
509 530T469 567T424 581T387 584Q373 584 345 579T290 551T241 480T220 343Q220 293 231 252T264 180T318 133T392 116Q432 116 459 129T503 162T528 204T539 247H703Z" />
<glyph unicode="D" glyph-name="D" horiz-adv-x="761" d="M240 136H345Q442 136 490 187T538 348Q538 421 519 463T473 528T413 557T355 564H240V136ZM376 700Q393 700 424 698T494 686T571 654T643 593T695 495T716 351Q716 268 698 210T649 113T581 52T504 18T427
3T361 0H75V700H376Z" />
<glyph unicode="E" glyph-name="E" horiz-adv-x="662" d="M582 422V293H240V136H638V0H75V700H628V564H240V422H582Z" />
<glyph unicode="F" glyph-name="F" d="M530 404V268H240V0H75V700H583V564H240V404H530Z" />
<glyph unicode="G" glyph-name="G" horiz-adv-x="789" d="M724 380V0H601V75H599Q564 21 512 1T387 -20Q311 -20 256 -2T163 47T101 116T64 196T47 278T42 352Q42 387 47 428T68 510T109 589T176 656T275 702T411 720Q487 720 542 698T634 641T691 562T718 473H545Q544
483 539 502T520 539T480 570T410 584Q362 584 330 569T276 531T243 481T227 427T221 379T220 347Q220 337 221 316T227 269T244 216T276 167T328 130T405 116Q432 116 459 124T509 148T547 191T566 253H426V380H724Z" />
<glyph unicode="H" glyph-name="H" horiz-adv-x="738" d="M240 0H75V700H240V437H494V700H659V0H494V301H240V0Z" />
<glyph unicode="I" glyph-name="I" horiz-adv-x="319" d="M240 700V0H75V700H240Z" />
<glyph unicode="J" glyph-name="J" horiz-adv-x="588" d="M26 258H191V230Q191 174 209 145T276 116Q324 116 338 146T353 230V700H518V253Q518 163 496 109T440 27T362 -11T277 -20Q196 -20 147 5T70 66T35 142T26 214V258Z" />
<glyph unicode="K" glyph-name="K" horiz-adv-x="725" d="M508 700H714L433 410L735 0H529L319 302L240 222V0H75V700H240V415L508 700Z" />
<glyph unicode="L" glyph-name="L" horiz-adv-x="580" d="M566 0H75V700H240V136H566V0Z" />
<glyph unicode="M" glyph-name="M" horiz-adv-x="952" d="M243 500H240V0H75V700H307L474 219L641 700H873V0H708V500H705L530 0H418L243 500Z" />
<glyph unicode="N" glyph-name="N" horiz-adv-x="765" d="M240 438V0H75V700H242L518 265H521V700H686V0H518L242 438H240Z" />
<glyph unicode="O" glyph-name="O" horiz-adv-x="795" d="M396 116Q438 116 467 129T516 163T547 211T563 263T570 312T572 350Q572 366 571 389T564 439T547 491T517 537T468 571T396 584Q362 584 331 574T275 537T236 465T221 350Q221 281 235 236T274 165T330
127T396 116ZM396 -20Q292 -20 224 15T116 104T59 223T42 350Q42 411 58 476T115 596T224 685T396 720Q486 720 553 692T663 615T728 497T750 350Q750 270 729 203T664 86T553 8T396 -20Z" />
<glyph unicode="P" glyph-name="P" horiz-adv-x="693" d="M240 377H369Q428 377 457 399T487 473Q487 509 474 527T442 554T403 563T369 564H240V377ZM401 700Q454 700 502 689T586 652T643 583T665 474Q665 419 651 381T615 316T563 275T504 253T446 243T397
241H240V0H75V700H401Z" />
<glyph unicode="Q" glyph-name="Q" horiz-adv-x="794" d="M540 196Q548 211 559 246T571 350Q571 419 556 464T517 536T460 573T395 584Q353 584 324 571T275 538T244 492T228 440T221 390T220 350Q220 334 221 310T227 260T244 209T274 163T323 129T395 116Q424
116 443 121T479 135L391 220L456 283L540 196ZM736 0L661 -75L572 16Q543 1 502 -9T395 -20Q316 -20 260 0T164 52T100 124T64 206T47 285T42 350Q42 411 58 476T115 596T223 685T395 720Q485 720 551 692T662 615T727 497T749 350Q749 291 739 246T713 167T682
112T656 79L736 0Z" />
<glyph unicode="R" glyph-name="R" horiz-adv-x="718" d="M240 386H391Q426 386 447 395T479 417T493 446T497 474Q497 526 468 545T385 564H240V386ZM75 700H433Q451 700 475 698T526 689T579 669T625 633T658 579T671 501Q671 457 659 426T628 375T588 344T549
326V324Q585 313 605 293T635 248T647 198T649 154Q650 121 650 98T653 57T661 27T676 0H508Q497 16 493 31T487 65T484 111T480 178Q477 209 462 225T428 249T392 257T367 258H240V0H75V700Z" />
<glyph unicode="S" glyph-name="S" horiz-adv-x="673" d="M202 227Q202 211 207 192T227 156T270 128T342 116Q365 116 387 118T427 129T456 151T467 188Q467 216 451 234T410 263T353 282T289 297Q242 307 200 320T127 357T77 417T58 513Q58 555 73 593T122 659T211
703T345 720Q418 720 468 701T549 652T595 584T611 508H455Q453 522 447 536T427 560T391 577T335 584Q304 584 284 579T251 564T233 542T227 517Q227 494 240 480T273 456T318 441T365 431Q420 420 469 407T556 369T614 308T636 213Q636 199 634 176T622 127T593
75T541 28T459 -6T340 -20Q243 -20 184 5T91 68T47 149T35 227H202Z" />
<glyph unicode="T" glyph-name="T" horiz-adv-x="615" d="M13 564V700H601V564H390V0H225V564H13Z" />
<glyph unicode="U" glyph-name="U" horiz-adv-x="742" d="M231 700V292Q231 205 261 161T369 116Q445 116 476 158T507 292V700H672V265Q672 247 670 219T659 160T630 96T578 38T493 -4T369 -20Q295 -20 244 -4T160 37T107 94T79 157T68 217T66 265V700H231Z" />
<glyph unicode="V" glyph-name="V" horiz-adv-x="631" d="M458 700H641L403 0H228L-9 700H180L322 200L458 700Z" />
<glyph unicode="W" glyph-name="W" horiz-adv-x="949" d="M355 0H176L-9 700H165L278 189L400 700H550L672 189L785 700H959L774 0H595L475 517L355 0Z" />
<glyph unicode="X" glyph-name="X" horiz-adv-x="705" d="M208 0H0L246 364L22 700H218L352 470L487 700H683L458 364L705 0H497L352 241L208 0Z" />
<glyph unicode="Y" glyph-name="Y" horiz-adv-x="645" d="M475 700H655L410 264V0H244V264L-9 700H179L327 397L475 700Z" />
<glyph unicode="Z" glyph-name="Z" horiz-adv-x="639" d="M588 700V573L227 136H611V0H26V146L380 564H44V700H588Z" />
<glyph unicode="[" glyph-name="bracketleft" horiz-adv-x="426" d="M370 700V608H238V-93H370V-185H106V700H370Z" />
<glyph unicode="\" glyph-name="backslash" horiz-adv-x="447" d="M367 -185L0 700H80L447 -185H367Z" />
<glyph unicode="]" glyph-name="bracketright" horiz-adv-x="429" d="M317 700V-185H53V-93H185V608H53V700H317Z" />
<glyph unicode="^" glyph-name="asciicircum" horiz-adv-x="460" d="M129 482H29L159 700H299L429 482H329L229 652L129 482Z" />
<glyph unicode="_" glyph-name="underscore" horiz-adv-x="497" d="M0 -105H497V-185H0V-105Z" />
<glyph unicode="`" glyph-name="grave" horiz-adv-x="349" d="M248 568H125L19 700H179L248 568Z" />
<glyph unicode="a" glyph-name="a" horiz-adv-x="607" d="M392 242Q375 234 366 231T347 225T326 221T292 215Q280 213 265 210T236 198T213 177T203 142Q203 124 211 113T231 95T256 86T281 83Q295 83 314 88T350 108T380 147T392 210V242ZM71 344Q73 388 87
419T124 470T172 501T225 518T273 525T310 527Q367 527 406 517T472 491T512 455T534 413T542 372T543 337L540 105Q539 63 543 39T570 9V0H410L397 50H394Q364 12 318 -3T224 -19Q163 -19 128 -2T75 38T52 87T47 128Q47 171 63 199T107 245T167 272T236 287Q278
293 307 296T354 303T381 316T391 344V358Q390 383 380 396T356 416T329 424T309 425Q299 425 283 423T252 413T227 388T216 344H71Z" />
<glyph unicode="b" glyph-name="b" horiz-adv-x="640" d="M205 254Q205 207 215 174T241 121T279 92T324 83Q379 83 411 128T443 254Q443 287 437 318T416 373T380 411T324 425Q281 425 257 404T222 354T208 297T205 254ZM202 0H61V700H213V457Q242 492 282 509T366
527Q421 527 465 508T539 453T585 367T601 256Q601 183 581 131T529 46T454 -3T368 -19Q315 -19 279 -1T205 61H202V0Z" />
<glyph unicode="c" glyph-name="c" horiz-adv-x="595" d="M559 192Q557 162 545 126T504 57T429 3T308 -19Q246 -19 196 -2T110 50T56 136T37 253Q37 298 49 346T92 435T178 501T317 527Q382 527 426 509T497 462T538 398T554 327H408Q404 358 395 377T372 406T344
421T311 425Q299 425 279 421T241 402T209 354T195 264Q195 201 208 165T240 110T278 88T309 83Q339 83 358 95T389 124T404 160T409 192H559Z" />
<glyph unicode="d" glyph-name="d" horiz-adv-x="641" d="M432 254Q432 337 401 381T313 425Q281 425 259 411T222 373T202 318T195 254Q195 174 227 129T313 83Q336 83 357 92T395 121T422 174T432 254ZM424 0V61H422Q403 40 386 25T350 0T312 -14T268 -19Q214
-19 172 1T99 57T53 144T37 256Q37 316 53 366T99 451T173 507T271 527Q290 527 311 523T353 509T392 487T424 457V700H576V0H424Z" />
<glyph unicode="e" glyph-name="e" horiz-adv-x="624" d="M427 302Q426 343 415 367T387 404T352 421T320 425Q286 425 263 413T225 383T203 343T195 302H427ZM574 147Q559 93 529 61T462 10T385 -13T310 -19Q293 -19 267 -17T210 -6T149 20T93 68T53 144T37 255Q37
321 58 371T117 456T207 509T322 527Q384 527 427 511T499 468T545 410T570 346T581 287T584 245L585 217H195Q195 199 200 176T219 132T256 97T317 83Q350 83 380 98T420 147H574Z" />
<glyph unicode="f" glyph-name="f" horiz-adv-x="387" d="M372 406H258V0H106V406H13V508H106V572Q106 610 119 636T156 677T215 699T294 706Q320 706 342 704T373 700V598Q363 600 347 602T316 604Q295 604 283 597T266 581T259 562T258 546V508H372V406Z" />
<glyph unicode="g" glyph-name="g" horiz-adv-x="645" d="M315 114Q333 114 353 118T391 138T420 184T432 265Q432 340 400 382T314 425Q276 425 254 407T219 364T202 312T198 267Q198 247 201 221T217 171T252 131T315 114ZM225 -40Q227 -48 232 -58T248 -76T277
-91T324 -97Q360 -97 380 -84T411 -51T425 -11T428 24V74H424Q392 42 356 27T272 12Q227 12 186 26T112 69T60 145T40 258Q40 321 56 371T102 455T176 508T274 527Q289 527 307 526T346 517T387 494T425 452H428V508H580V47Q580 -35 555 -84T491 -158T408 -191T323
-199Q287 -199 248 -194T174 -173T113 -125T77 -40H225Z" />
<glyph unicode="h" glyph-name="h" horiz-adv-x="615" d="M213 453Q237 481 264 496T315 518T358 526T385 527Q416 527 446 519T500 488T538 424T553 319V0H401V294Q401 312 399 334T389 377T363 411T315 425Q277 425 257 406T227 363T215 316T213 286V0H61V700H213V453Z" />
<glyph unicode="i" glyph-name="i" horiz-adv-x="278" d="M61 700H213V581H61V700ZM213 508V0H61V508H213Z" />
<glyph unicode="j" glyph-name="j" horiz-adv-x="277" d="M60 700H212V581H60V700ZM212 508V-25Q212 -85 197 -118T159 -168T111 -188T66 -192Q40 -192 18 -191T-29 -185V-83Q-25 -84 -22 -84T-15 -85Q12 -85 27 -79T50 -62T58 -38T60 -10V508H212Z" />
<glyph unicode="k" glyph-name="k" horiz-adv-x="578" d="M387 508H570L369 308L588 0H407L265 211L213 158V0H61V700H213V315L387 508Z" />
<glyph unicode="l" glyph-name="l" horiz-adv-x="278" d="M213 700V0H61V700H213Z" />
<glyph unicode="m" glyph-name="m" horiz-adv-x="917" d="M203 508V434Q224 464 245 482T286 510T324 523T359 527Q395 527 420 517T463 492T491 459T508 425Q533 462 558 482T607 513T650 525T682 527Q743 527 778 503T830 444T851 372T855 309V0H703V299Q703
319 701 341T691 382T668 413T627 425Q611 425 595 419T565 397T543 356T534 292V0H382V299Q382 327 379 350T367 390T343 416T305 425Q290 425 274 419T245 396T222 355T213 292V0H61V508H203Z" />
<glyph unicode="n" glyph-name="n" horiz-adv-x="615" d="M207 447Q238 489 285 508T383 527Q409 527 438 521T493 494T536 432T553 319V0H401V294Q401 313 399 335T389 378T363 411T315 425Q277 425 257 407T227 364T215 317T213 286V0H61V508H207V447Z" />
<glyph unicode="o" glyph-name="o" horiz-adv-x="632" d="M315 83Q356 83 380 101T416 145T431 201T435 255Q435 316 422 350T389 400T350 421T315 425Q302 425 282 421T243 401T209 350T195 255Q195 231 198 201T214 145T250 101T315 83ZM315 -19Q256 -19 205
-3T117 48T58 133T37 255Q37 330 60 382T123 466T212 512T315 527Q375 527 425 511T513 461T572 376T593 255Q593 185 572 134T514 48T425 -2T315 -19Z" />
<glyph unicode="p" glyph-name="p" horiz-adv-x="640" d="M206 255Q206 222 212 191T232 136T269 98T325 83Q358 83 380 97T417 136T437 191T443 255Q443 308 431 341T401 393T363 418T325 425Q308 425 287 419T248 394T218 342T206 255ZM204 508L203 447H206Q228
474 251 490T296 514T337 525T370 527Q424 527 466 508T539 453T585 367T601 253Q601 193 585 143T539 57T465 1T367 -19Q359 -19 342 -17T302 -8T256 13T213 52V-185H61V508H204Z" />
<glyph unicode="q" glyph-name="q" horiz-adv-x="643" d="M434 255Q434 308 422 341T392 393T353 418T315 425Q278 425 255 407T218 363T200 307T195 255Q195 231 200 202T218 146T255 101T315 83Q353 83 376 101T412 145T429 201T434 255ZM434 508H578V-185H426V52Q396
13 355 -3T273 -19Q228 -19 186 -4T110 45T57 129T37 253Q37 327 56 379T108 464T183 512T271 527Q295 527 319 521T364 505T403 480T428 447H434V508Z" />
<glyph unicode="r" glyph-name="r" horiz-adv-x="424" d="M410 425Q400 426 390 426Q380 426 370 426Q337 426 309 417T259 384T226 318T213 208V0H61V508H213V425Q228 456 248 476T292 507T341 522T392 527H410V425Z" />
<glyph unicode="s" glyph-name="s" horiz-adv-x="558" d="M186 160Q188 118 215 101T288 83Q301 83 315 86T341 95T360 112T368 137Q368 159 356 172T324 193T277 205T222 214T163 226T104 250T60 296T42 371Q42 388 48 414T78 466T148 509T276 527Q345 527 389
512T458 473T493 422T504 368H366Q364 390 354 401T332 418T306 424T286 425Q276 425 262 424T234 419T210 405T200 381Q200 358 212 346T243 326T284 315T327 309Q360 304 395 297T459 274T507 230T526 154Q526 125 517 95T481 39T407 -3T283 -19Q164 -19 99 30T30
160H186Z" />
<glyph unicode="t" glyph-name="t" horiz-adv-x="386" d="M13 508H105V660H257V508H365V406H257V162Q257 150 257 138Q257 126 262 116T280 100T317 93Q334 93 346 96T365 102V0Q336 -6 301 -10T241 -14Q203 -14 177 -6T135 21T112 67T105 134V406H13V508Z" />
<glyph unicode="u" glyph-name="u" horiz-adv-x="615" d="M398 61Q356 14 315 -2T228 -19Q166 -19 132 5T82 62T62 131T58 190V508H210V214Q210 176 215 151T231 111T258 90T295 83Q331 83 351 99T382 139T395 185T398 223V508H550V0H398V61Z" />
<glyph unicode="v" glyph-name="v" horiz-adv-x="521" d="M371 508H531L345 0H177L-9 508H151L261 140L371 508Z" />
<glyph unicode="w" glyph-name="w" horiz-adv-x="799" d="M303 0H157L-9 508H145L237 150L331 508H469L563 150L655 508H809L643 0H497L400 344L303 0Z" />
<glyph unicode="x" glyph-name="x" horiz-adv-x="556" d="M372 508H547L367 263L556 0H381L278 166L175 0H0L190 263L9 508H185L278 350L372 508Z" />
<glyph unicode="y" glyph-name="y" horiz-adv-x="558" d="M95 -83Q106 -88 118 -89T144 -90Q163 -90 175 -84T196 -67T210 -45T218 -19L225 6L4 508H187L305 177L396 508H558L381 -27Q373 -53 363 -82T333 -136T283 -177T202 -194Q171 -194 143 -192T95 -185V-83Z" />
<glyph unicode="z" glyph-name="z" horiz-adv-x="514" d="M473 508V407L208 102H486V0H26V102L296 406H48V508H473Z" />
<glyph unicode="{" glyph-name="braceleft" horiz-adv-x="503" d="M132 342Q148 342 164 348T192 370T213 411T221 472Q221 486 221 498T219 525Q218 538 218 550T217 575Q217 629 234 662T279 712T338 735T399 739V666Q376 660 363 649T342 626T332 600T329 575Q329
561 330 548T332 520Q334 504 334 489Q334 474 334 458Q334 434 329 412T311 368T276 330T220 299V292Q254 277 276 260T311 224T329 181T334 133Q334 117 334 102Q334 87 332 71Q331 57 330 43T329 15Q329 -8 336 -24T353 -50T376 -67T399 -75V-148Q346 -151 311
-138T255 -102T226 -49T217 15Q217 29 217 39T219 59T220 83T221 119Q221 153 214 177T195 216T166 239T132 249V342Z" />
<glyph unicode="|" glyph-name="bar" horiz-adv-x="469" d="M189 829H269V-224H189V829Z" />
<glyph unicode="}" glyph-name="braceright" horiz-adv-x="505" d="M365 249Q333 246 315 229T289 192T278 151T276 119Q276 96 276 81T278 55T279 35T280 15Q280 -26 270 -54T242 -100T204 -129T163 -143T126 -148T98 -148V-75Q109 -73 121 -67T143 -51T161 -24T168
15Q168 29 167 43T165 71Q163 87 163 102Q163 117 163 133Q163 158 168 181T185 223T220 260T277 292V299Q243 312 221 329T186 368T168 411T163 458Q163 474 163 489Q163 504 165 520Q166 534 167 547T168 575Q168 587 166 600T156 625T135 649T98 666V739Q124
740 155 735T215 713T261 662T280 575Q280 558 278 537T276 472Q276 436 284 411T304 371T333 349T365 342V249Z" />
<glyph unicode="~" glyph-name="asciitilde" horiz-adv-x="664" d="M50 304Q58 325 72 351T106 399T153 437T213 452Q240 452 262 445T300 429L403 374Q414 368 426 365T455 361Q487 361 507 384T541 442L610 406Q602 385 588 359T554 311T507 273T447 258Q420
258 398 265T360 281L257 336Q233 349 204 349Q186 349 172 342T148 322T130 296T119 268L50 304Z" />
</font>
</defs>
</svg>
