<?xml version="1.0" encoding="UTF-8" standalone="no"?>
<!-- Created with Inkscape (http://www.inkscape.org/) -->

<svg
   xmlns:dc="http://purl.org/dc/elements/1.1/"
   xmlns:cc="http://creativecommons.org/ns#"
   xmlns:rdf="http://www.w3.org/1999/02/22-rdf-syntax-ns#"
   xmlns:svg="http://www.w3.org/2000/svg"
   xmlns="http://www.w3.org/2000/svg"
   xmlns:sodipodi="http://sodipodi.sourceforge.net/DTD/sodipodi-0.dtd"
   xmlns:inkscape="http://www.inkscape.org/namespaces/inkscape"
   width="90.484718mm"
   height="27.228922mm"
   viewBox="0 0 90.484718 27.228921"
   version="1.1"
   id="svg9308"
   inkscape:version="0.92.3 (2405546, 2018-03-11)"
   sodipodi:docname="idaciti_logo_with_mark_and_type.svg">
  <defs
     id="defs9302" />
  <sodipodi:namedview
     id="base"
     pagecolor="#ffffff"
     bordercolor="#666666"
     borderopacity="1.0"
     inkscape:pageopacity="0.0"
     inkscape:pageshadow="2"
     inkscape:zoom="1.4142136"
     inkscape:cx="203.69738"
     inkscape:cy="22.127396"
     inkscape:document-units="mm"
     inkscape:current-layer="layer1"
     showgrid="false"
     fit-margin-top="0"
     fit-margin-left="0"
     fit-margin-right="0"
     fit-margin-bottom="0"
     inkscape:window-width="1920"
     inkscape:window-height="1017"
     inkscape:window-x="-8"
     inkscape:window-y="-8"
     inkscape:window-maximized="1" />
  <metadata
     id="metadata9305">
    <rdf:RDF>
      <cc:Work
         rdf:about="">
        <dc:format>image/svg+xml</dc:format>
        <dc:type
           rdf:resource="http://purl.org/dc/dcmitype/StillImage" />
        <dc:title></dc:title>
      </cc:Work>
    </rdf:RDF>
  </metadata>
  <g
     inkscape:label="Layer 1"
     inkscape:groupmode="layer"
     id="layer1"
     transform="translate(-34.888593,-118.58792)">
    <g
       style="enable-background:new"
       id="g999"
       transform="matrix(1.8830824,0,0,1.8830824,-71.082686,-344.10392)">
      <circle
         r="4.2190509"
         cy="253.10844"
         cx="62.88863"
         id="path5432-5"
         style="opacity:1;vector-effect:none;fill:#bfd730;fill-opacity:1;stroke:none;stroke-width:0.01132137;stroke-linecap:butt;stroke-linejoin:miter;stroke-miterlimit:4;stroke-dasharray:none;stroke-dashoffset:0;stroke-opacity:1" />
      <path
         id="path815-1-00-0-7-7-6"
         d="m 63.769151,258.98606 c -3.078817,0.5368 -6.198838,-1.27591 -7.186138,-4.3279 -0.9873,-3.05196 0.479865,-6.3486 3.289735,-7.71678 l 1.160062,3.58602 c -0.905,0.67093 -1.311404,1.85074 -0.941017,2.9957 0.370387,1.14494 1.390788,1.86314 2.517275,1.87688 z"
         style="color:#000000;font-style:normal;font-variant:normal;font-weight:normal;font-stretch:normal;font-size:medium;line-height:normal;font-family:sans-serif;font-variant-ligatures:normal;font-variant-position:normal;font-variant-caps:normal;font-variant-numeric:normal;font-variant-alternates:normal;font-feature-settings:normal;text-indent:0;text-align:start;text-decoration:none;text-decoration-line:none;text-decoration-style:solid;text-decoration-color:#000000;letter-spacing:normal;word-spacing:normal;text-transform:none;writing-mode:lr-tb;direction:ltr;text-orientation:mixed;dominant-baseline:auto;baseline-shift:baseline;text-anchor:start;white-space:normal;shape-padding:0;clip-rule:nonzero;display:inline;overflow:visible;visibility:visible;opacity:1;isolation:auto;mix-blend-mode:normal;color-interpolation:sRGB;color-interpolation-filters:linearRGB;solid-color:#000000;solid-opacity:1;vector-effect:none;fill:#484848;fill-opacity:1;fill-rule:nonzero;stroke:none;stroke-width:0.0062149;stroke-linecap:butt;stroke-linejoin:miter;stroke-miterlimit:4;stroke-dasharray:none;stroke-dashoffset:0;stroke-opacity:1;color-rendering:auto;image-rendering:auto;shape-rendering:auto;text-rendering:auto;enable-background:accumulate"
         inkscape:connector-curvature="0" />
      <path
         id="path815-1-0-8-4-5-9-3"
         d="m 65.136081,259.92629 c -0.326237,0.10553 -0.654965,0.1859 -0.984066,0.24329 l -1.322401,-4.08784 c 0.332995,0.004 0.674094,-0.0458 1.01255,-0.15525 1.643603,-0.5317 2.515961,-2.23837 1.984262,-3.88197 -0.531694,-1.6436 -2.238384,-2.51603 -3.881987,-1.98433 -0.338456,0.10949 -0.644109,0.26889 -0.911629,0.46721 l -1.322375,-4.08777 c 0.300353,-0.14624 0.613871,-0.27363 0.940108,-0.37916 3.80523,-1.23098 7.944698,0.88491 9.175675,4.69013 1.23098,3.80524 -0.884912,7.94469 -4.690137,9.17569 z"
         style="color:#000000;font-style:normal;font-variant:normal;font-weight:normal;font-stretch:normal;font-size:medium;line-height:normal;font-family:sans-serif;font-variant-ligatures:normal;font-variant-position:normal;font-variant-caps:normal;font-variant-numeric:normal;font-variant-alternates:normal;font-feature-settings:normal;text-indent:0;text-align:start;text-decoration:none;text-decoration-line:none;text-decoration-style:solid;text-decoration-color:#000000;letter-spacing:normal;word-spacing:normal;text-transform:none;writing-mode:lr-tb;direction:ltr;text-orientation:mixed;dominant-baseline:auto;baseline-shift:baseline;text-anchor:start;white-space:normal;shape-padding:0;clip-rule:nonzero;display:inline;overflow:visible;visibility:visible;opacity:1;isolation:auto;mix-blend-mode:normal;color-interpolation:sRGB;color-interpolation-filters:linearRGB;solid-color:#000000;solid-opacity:1;vector-effect:none;fill:#2b2b2b;fill-opacity:1;fill-rule:nonzero;stroke:none;stroke-width:4.2038393;stroke-linecap:butt;stroke-linejoin:miter;stroke-miterlimit:4;stroke-dasharray:none;stroke-dashoffset:0;stroke-opacity:1;color-rendering:auto;image-rendering:auto;shape-rendering:auto;text-rendering:auto;enable-background:accumulate"
         inkscape:connector-curvature="0" />
      <path
         id="path5004-5-9-2"
         d="m 72.36976,248.23653 c 0,-0.8056 0.653203,-1.45878 1.458803,-1.45878 0.805599,0 1.458789,0.65318 1.458789,1.45878 0,0.80583 -0.65319,1.45871 -1.458789,1.45871 -0.8056,0 -1.458803,-0.65288 -1.458803,-1.45871 z"
         inkscape:connector-curvature="0"
         style="fill:#bfd730;stroke-width:0.01160036" />
      <path
         id="path5006-1-6-67"
         d="m 101.40928,248.23653 c 0,-0.8056 0.65325,-1.45878 1.45885,-1.45878 0.80554,0 1.45869,0.65318 1.45869,1.45878 0,0.80583 -0.65315,1.45871 -1.45869,1.45871 -0.8056,0 -1.45885,-0.65288 -1.45885,-1.45871 z"
         inkscape:connector-curvature="0"
         style="fill:#bfd730;stroke-width:0.01160036" />
      <path
         id="path5008-8-2-4"
         d="m 93.729699,258.75146 c -0.01272,0.004 -0.02458,0.009 -0.03699,0.0141 -0.0069,0.0194 -0.01493,0.0388 -0.02206,0.0592 0.02046,-0.0254 0.04019,-0.0502 0.05905,-0.0734 z"
         inkscape:connector-curvature="0"
         style="fill:none;stroke-width:0.01160036" />
      <path
         id="path5044-2-35-0"
         d="m 80.771357,247.41396 c -0.14903,0 -0.300061,0.004 -0.453021,0.013 -0.153478,0.009 -0.308747,0.0264 -0.466464,0.0526 v 2.78492 c -0.157568,-0.0438 -0.321764,-0.0723 -0.492614,-0.0855 -0.170746,-0.0132 -0.334909,-0.0197 -0.492523,-0.0197 -0.525474,0 -1.002922,0.0941 -1.431873,0.28231 -0.429169,0.18841 -0.794777,0.44468 -1.096815,0.76844 -0.302151,0.32413 -0.534309,0.70729 -0.696174,1.14951 -0.162267,0.44226 -0.243141,0.913 -0.243141,1.41197 0,0.63058 0.0941,1.16491 0.282585,1.60269 0.18821,0.43805 0.444277,0.79478 0.768305,1.07058 0.32396,0.27576 0.698301,0.47735 1.12323,0.60416 0.424619,0.12701 0.868954,0.19052 1.333327,0.19052 0.604201,0 1.11853,-0.0329 1.54346,-0.0984 0.424561,-0.0658 0.842792,-0.15972 1.254486,-0.28253 v -9.37908 c -0.157672,-0.0262 -0.315389,-0.0438 -0.472899,-0.0526 -0.157614,-0.008 -0.311045,-0.013 -0.459869,-0.013 z m -0.919485,8.18367 c -0.148985,0.044 -0.284722,0.0723 -0.40719,0.0855 -0.122765,0.0131 -0.258411,0.0198 -0.4072,0.0198 -0.245245,0 -0.472899,-0.0329 -0.683042,-0.0986 -0.210294,-0.0656 -0.392127,-0.17282 -0.545191,-0.32191 -0.153385,-0.14873 -0.273807,-0.34804 -0.361311,-0.59762 -0.08755,-0.24947 -0.131315,-0.55367 -0.131315,-0.91303 0,-0.28882 0.03286,-0.56678 0.09847,-0.83401 0.06572,-0.26705 0.168551,-0.49914 0.308701,-0.69629 0.139977,-0.19703 0.317376,-0.35459 0.532058,-0.47289 0.214487,-0.11808 0.466257,-0.17728 0.755322,-0.17728 0.166151,0 0.304198,0.007 0.413739,0.0198 0.109496,0.0131 0.251575,0.0416 0.426917,0.0852 v 3.90146 z m 7.173058,-4.80784 c -0.512131,-0.43779 -1.223819,-0.65677 -2.134425,-0.65677 -0.333,0 -0.692024,0.0308 -1.077188,0.092 -0.38538,0.0613 -0.770707,0.15757 -1.156031,0.28906 0,0.28034 0.03056,0.5211 0.09203,0.72237 0.06124,0.20149 0.153065,0.41612 0.275796,0.6438 0.534106,-0.18409 1.037744,-0.27591 1.510646,-0.27591 0.218772,0 0.418083,0.0131 0.597675,0.0394 0.179371,0.0263 0.33045,0.0769 0.453275,0.15103 0.122462,0.0746 0.218668,0.17743 0.288972,0.30867 0.06997,0.13144 0.105017,0.30219 0.105017,0.51242 v 0.15758 c -0.306602,-0.0262 -0.586829,-0.0394 -0.840603,-0.0394 -0.350384,0 -0.700805,0.0374 -1.05095,0.11179 -0.350371,0.0743 -0.667849,0.19692 -0.952319,0.36777 -0.284688,0.17079 -0.516835,0.39852 -0.696267,0.68303 -0.179547,0.28465 -0.269246,0.6371 -0.269246,1.05737 0,0.4204 0.07227,0.77506 0.216728,1.06413 0.144538,0.28889 0.350178,0.52537 0.617333,0.70919 0.267048,0.18398 0.586634,0.31533 0.959029,0.39416 0.372095,0.0789 0.781581,0.11818 1.228225,0.11818 0.551668,0 1.046292,-0.0439 1.484297,-0.1313 0.43774,-0.0876 0.809933,-0.17939 1.116633,-0.27578 v -3.94082 c 0,-0.9633 -0.256146,-1.66382 -0.768633,-2.10187 z m -1.044246,4.91298 c -0.0964,0.0176 -0.210132,0.0374 -0.341492,0.0591 -0.131305,0.0221 -0.262708,0.033 -0.394173,0.033 -0.11386,0 -0.247426,-0.007 -0.400564,-0.0198 -0.153211,-0.0132 -0.297851,-0.048 -0.4335,-0.10502 -0.135853,-0.0568 -0.251881,-0.14658 -0.348086,-0.26926 -0.0964,-0.12252 -0.14448,-0.29765 -0.14448,-0.52552 0,-0.34145 0.124767,-0.58876 0.374294,-0.74209 0.249736,-0.1532 0.58898,-0.22989 1.018148,-0.22989 0.09628,0 0.205591,0.007 0.328361,0.0197 0.122462,0.0131 0.2365,0.0286 0.341492,0.046 z m 7.305498,-0.22331 c -0.149088,0.0525 -0.278187,0.0964 -0.387635,0.13127 -0.109607,0.0352 -0.216818,0.0613 -0.321822,0.0788 -0.105128,0.0176 -0.212535,0.0286 -0.321853,0.0328 -0.109614,0.004 -0.229864,0.007 -0.361237,0.007 -0.507983,0 -0.910888,-0.16195 -1.208456,-0.48604 -0.297808,-0.32392 -0.446676,-0.84072 -0.446676,-1.55 0,-0.65684 0.137997,-1.16261 0.413739,-1.51723 0.275871,-0.35459 0.685129,-0.53201 1.228366,-0.53201 0.253725,0 0.479391,0.0154 0.676508,0.046 0.196902,0.0308 0.426797,0.09 0.689505,0.17733 0.113632,-0.22766 0.197062,-0.46633 0.24965,-0.71594 0.05242,-0.24955 0.07882,-0.47489 0.07882,-0.67645 -0.183924,-0.07 -0.350267,-0.12678 -0.499104,-0.17086 -0.149033,-0.0437 -0.297869,-0.0787 -0.446681,-0.1049 -0.149039,-0.0263 -0.304451,-0.0437 -0.466358,-0.0526 -0.162121,-0.008 -0.339446,-0.0132 -0.531954,-0.0132 -0.543053,0 -1.020342,0.092 -1.431832,0.27595 -0.411735,0.18387 -0.755317,0.43796 -1.031218,0.76185 -0.275797,0.3241 -0.48164,0.70074 -0.617388,1.12976 -0.135913,0.4291 -0.203606,0.89316 -0.203606,1.39236 0,0.50802 0.07008,0.97853 0.210347,1.41202 0.139933,0.43366 0.348031,0.80794 0.623816,1.12316 0.275827,0.31531 0.623858,0.56279 1.044337,0.74217 0.420443,0.17933 0.914895,0.2693 1.484346,0.2693 0.332662,0 0.652334,-0.0198 0.958874,-0.0591 0.306553,-0.0393 0.634969,-0.12906 0.985298,-0.26931 0,-0.31526 -0.03515,-0.58887 -0.105245,-0.82097 -0.0702,-0.2319 -0.157599,-0.43557 -0.262536,-0.61081 z m 7.824928,0.10501 c -0.0964,0.0176 -0.20813,0.0374 -0.3349,0.0592 -0.12706,0.0218 -0.25612,0.0327 -0.38752,0.0327 -0.16651,0 -0.311,-0.0174 -0.433447,-0.0525 -0.122776,-0.0349 -0.225784,-0.10065 -0.308796,-0.19707 -0.08329,-0.0962 -0.146833,-0.2277 -0.190474,-0.39404 -0.04387,-0.16633 -0.06572,-0.38533 -0.06572,-0.65682 v -2.66663 h 1.589587 c 0.0262,-0.13995 0.0436,-0.26695 0.0524,-0.38099 0.009,-0.11363 0.0132,-0.2319 0.0132,-0.35457 0,-0.11375 -0.004,-0.22343 -0.0132,-0.32839 -0.009,-0.10513 -0.0261,-0.2234 -0.0524,-0.3548 h -1.589587 v -1.98333 h -0.301999 l -2.456499,3.13931 0.06572,0.26277 h 0.853882 v 3.07384 c 0,0.84072 0.210187,1.44727 0.630464,1.81926 0.420276,0.37231 1.028865,0.55838 1.825779,0.55838 0.42901,0 0.84515,-0.0482 1.24806,-0.14439 0.009,-0.0613 0.0151,-0.12494 0.0198,-0.19067 0.004,-0.0657 0.007,-0.14654 0.007,-0.24297 0,-0.14005 -0.0131,-0.29991 -0.0394,-0.47952 -0.0262,-0.17936 -0.0702,-0.35236 -0.13133,-0.51883 z m -28.195391,1.49749 c 0.315182,0.0525 0.617325,0.0789 0.906301,0.0789 0.297655,0 0.604297,-0.0263 0.919433,-0.0789 v -6.79134 h -1.825734 z m 29.039421,-6.79134 v 6.79134 c 0.31523,0.0525 0.61753,0.0789 0.90651,0.0789 0.29744,0 0.6041,-0.0263 0.91944,-0.0789 v -6.79134 z"
         mask="url(#SVGID_5_)"
         inkscape:connector-curvature="0"
         style="fill:#2b2b2b;fill-opacity:1;stroke-width:0.01160036" />
      <path
         id="path5470-9-9"
         d="m 94.267411,257.07393 c 0.313146,0.0522 0.613339,0.0784 0.900436,0.0784 0.295731,0 0.600397,-0.0262 0.913488,-0.0784 v -6.74741 h -1.813924 z"
         style="opacity:1;vector-effect:none;fill:#2b2b2b;fill-opacity:1;stroke:none;stroke-width:0.01160036;stroke-linecap:butt;stroke-linejoin:miter;stroke-miterlimit:4;stroke-dasharray:none;stroke-dashoffset:0;stroke-opacity:1"
         inkscape:connector-curvature="0" />
      <path
         id="path5006-1-6-6-4"
         d="m 93.655493,248.23653 c 0,-0.8056 0.653249,-1.45878 1.45885,-1.45878 0.80554,0 1.458691,0.65318 1.458691,1.45878 0,0.80583 -0.653151,1.45871 -1.458691,1.45871 -0.805601,0 -1.45885,-0.65288 -1.45885,-1.45871 z"
         inkscape:connector-curvature="0"
         style="fill:#bfd730;stroke-width:0.01160036" />
    </g>
    <g
       transform="matrix(1.8830824,0,0,1.8830824,-71.082686,-344.10392)"
       id="g9895"
       style="enable-background:new">
      <circle
         style="opacity:1;vector-effect:none;fill:#bfd730;fill-opacity:1;stroke:none;stroke-width:0.01132137;stroke-linecap:butt;stroke-linejoin:miter;stroke-miterlimit:4;stroke-dasharray:none;stroke-dashoffset:0;stroke-opacity:1"
         id="circle9877"
         cx="62.88863"
         cy="253.10844"
         r="4.2190509" />
      <path
         inkscape:connector-curvature="0"
         style="color:#000000;font-style:normal;font-variant:normal;font-weight:normal;font-stretch:normal;font-size:medium;line-height:normal;font-family:sans-serif;font-variant-ligatures:normal;font-variant-position:normal;font-variant-caps:normal;font-variant-numeric:normal;font-variant-alternates:normal;font-feature-settings:normal;text-indent:0;text-align:start;text-decoration:none;text-decoration-line:none;text-decoration-style:solid;text-decoration-color:#000000;letter-spacing:normal;word-spacing:normal;text-transform:none;writing-mode:lr-tb;direction:ltr;text-orientation:mixed;dominant-baseline:auto;baseline-shift:baseline;text-anchor:start;white-space:normal;shape-padding:0;clip-rule:nonzero;display:inline;overflow:visible;visibility:visible;opacity:1;isolation:auto;mix-blend-mode:normal;color-interpolation:sRGB;color-interpolation-filters:linearRGB;solid-color:#000000;solid-opacity:1;vector-effect:none;fill:#484848;fill-opacity:1;fill-rule:nonzero;stroke:none;stroke-width:0.0062149;stroke-linecap:butt;stroke-linejoin:miter;stroke-miterlimit:4;stroke-dasharray:none;stroke-dashoffset:0;stroke-opacity:1;color-rendering:auto;image-rendering:auto;shape-rendering:auto;text-rendering:auto;enable-background:accumulate"
         d="m 63.769151,258.98606 c -3.078817,0.5368 -6.198838,-1.27591 -7.186138,-4.3279 -0.9873,-3.05196 0.479865,-6.3486 3.289735,-7.71678 l 1.160062,3.58602 c -0.905,0.67093 -1.311404,1.85074 -0.941017,2.9957 0.370387,1.14494 1.390788,1.86314 2.517275,1.87688 z"
         id="path9879" />
      <path
         inkscape:connector-curvature="0"
         style="color:#000000;font-style:normal;font-variant:normal;font-weight:normal;font-stretch:normal;font-size:medium;line-height:normal;font-family:sans-serif;font-variant-ligatures:normal;font-variant-position:normal;font-variant-caps:normal;font-variant-numeric:normal;font-variant-alternates:normal;font-feature-settings:normal;text-indent:0;text-align:start;text-decoration:none;text-decoration-line:none;text-decoration-style:solid;text-decoration-color:#000000;letter-spacing:normal;word-spacing:normal;text-transform:none;writing-mode:lr-tb;direction:ltr;text-orientation:mixed;dominant-baseline:auto;baseline-shift:baseline;text-anchor:start;white-space:normal;shape-padding:0;clip-rule:nonzero;display:inline;overflow:visible;visibility:visible;opacity:1;isolation:auto;mix-blend-mode:normal;color-interpolation:sRGB;color-interpolation-filters:linearRGB;solid-color:#000000;solid-opacity:1;vector-effect:none;fill:#2b2b2b;fill-opacity:1;fill-rule:nonzero;stroke:none;stroke-width:4.2038393;stroke-linecap:butt;stroke-linejoin:miter;stroke-miterlimit:4;stroke-dasharray:none;stroke-dashoffset:0;stroke-opacity:1;color-rendering:auto;image-rendering:auto;shape-rendering:auto;text-rendering:auto;enable-background:accumulate"
         d="m 65.136081,259.92629 c -0.326237,0.10553 -0.654965,0.1859 -0.984066,0.24329 l -1.322401,-4.08784 c 0.332995,0.004 0.674094,-0.0458 1.01255,-0.15525 1.643603,-0.5317 2.515961,-2.23837 1.984262,-3.88197 -0.531694,-1.6436 -2.238384,-2.51603 -3.881987,-1.98433 -0.338456,0.10949 -0.644109,0.26889 -0.911629,0.46721 l -1.322375,-4.08777 c 0.300353,-0.14624 0.613871,-0.27363 0.940108,-0.37916 3.80523,-1.23098 7.944698,0.88491 9.175675,4.69013 1.23098,3.80524 -0.884912,7.94469 -4.690137,9.17569 z"
         id="path9881" />
      <path
         style="fill:#bfd730;stroke-width:0.01160036"
         inkscape:connector-curvature="0"
         d="m 72.36976,248.23653 c 0,-0.8056 0.653203,-1.45878 1.458803,-1.45878 0.805599,0 1.458789,0.65318 1.458789,1.45878 0,0.80583 -0.65319,1.45871 -1.458789,1.45871 -0.8056,0 -1.458803,-0.65288 -1.458803,-1.45871 z"
         id="path9883" />
      <path
         style="fill:#bfd730;stroke-width:0.01160036"
         inkscape:connector-curvature="0"
         d="m 101.40928,248.23653 c 0,-0.8056 0.65325,-1.45878 1.45885,-1.45878 0.80554,0 1.45869,0.65318 1.45869,1.45878 0,0.80583 -0.65315,1.45871 -1.45869,1.45871 -0.8056,0 -1.45885,-0.65288 -1.45885,-1.45871 z"
         id="path9885" />
      <path
         style="fill:none;stroke-width:0.01160036"
         inkscape:connector-curvature="0"
         d="m 93.729699,258.75146 c -0.01272,0.004 -0.02458,0.009 -0.03699,0.0141 -0.0069,0.0194 -0.01493,0.0388 -0.02206,0.0592 0.02046,-0.0254 0.04019,-0.0502 0.05905,-0.0734 z"
         id="path9887" />
      <path
         style="fill:#2b2b2b;fill-opacity:1;stroke-width:0.01160036"
         inkscape:connector-curvature="0"
         mask="url(#SVGID_5_)"
         d="m 80.771357,247.41396 c -0.14903,0 -0.300061,0.004 -0.453021,0.013 -0.153478,0.009 -0.308747,0.0264 -0.466464,0.0526 v 2.78492 c -0.157568,-0.0438 -0.321764,-0.0723 -0.492614,-0.0855 -0.170746,-0.0132 -0.334909,-0.0197 -0.492523,-0.0197 -0.525474,0 -1.002922,0.0941 -1.431873,0.28231 -0.429169,0.18841 -0.794777,0.44468 -1.096815,0.76844 -0.302151,0.32413 -0.534309,0.70729 -0.696174,1.14951 -0.162267,0.44226 -0.243141,0.913 -0.243141,1.41197 0,0.63058 0.0941,1.16491 0.282585,1.60269 0.18821,0.43805 0.444277,0.79478 0.768305,1.07058 0.32396,0.27576 0.698301,0.47735 1.12323,0.60416 0.424619,0.12701 0.868954,0.19052 1.333327,0.19052 0.604201,0 1.11853,-0.0329 1.54346,-0.0984 0.424561,-0.0658 0.842792,-0.15972 1.254486,-0.28253 v -9.37908 c -0.157672,-0.0262 -0.315389,-0.0438 -0.472899,-0.0526 -0.157614,-0.008 -0.311045,-0.013 -0.459869,-0.013 z m -0.919485,8.18367 c -0.148985,0.044 -0.284722,0.0723 -0.40719,0.0855 -0.122765,0.0131 -0.258411,0.0198 -0.4072,0.0198 -0.245245,0 -0.472899,-0.0329 -0.683042,-0.0986 -0.210294,-0.0656 -0.392127,-0.17282 -0.545191,-0.32191 -0.153385,-0.14873 -0.273807,-0.34804 -0.361311,-0.59762 -0.08755,-0.24947 -0.131315,-0.55367 -0.131315,-0.91303 0,-0.28882 0.03286,-0.56678 0.09847,-0.83401 0.06572,-0.26705 0.168551,-0.49914 0.308701,-0.69629 0.139977,-0.19703 0.317376,-0.35459 0.532058,-0.47289 0.214487,-0.11808 0.466257,-0.17728 0.755322,-0.17728 0.166151,0 0.304198,0.007 0.413739,0.0198 0.109496,0.0131 0.251575,0.0416 0.426917,0.0852 v 3.90146 z m 7.173058,-4.80784 c -0.512131,-0.43779 -1.223819,-0.65677 -2.134425,-0.65677 -0.333,0 -0.692024,0.0308 -1.077188,0.092 -0.38538,0.0613 -0.770707,0.15757 -1.156031,0.28906 0,0.28034 0.03056,0.5211 0.09203,0.72237 0.06124,0.20149 0.153065,0.41612 0.275796,0.6438 0.534106,-0.18409 1.037744,-0.27591 1.510646,-0.27591 0.218772,0 0.418083,0.0131 0.597675,0.0394 0.179371,0.0263 0.33045,0.0769 0.453275,0.15103 0.122462,0.0746 0.218668,0.17743 0.288972,0.30867 0.06997,0.13144 0.105017,0.30219 0.105017,0.51242 v 0.15758 c -0.306602,-0.0262 -0.586829,-0.0394 -0.840603,-0.0394 -0.350384,0 -0.700805,0.0374 -1.05095,0.11179 -0.350371,0.0743 -0.667849,0.19692 -0.952319,0.36777 -0.284688,0.17079 -0.516835,0.39852 -0.696267,0.68303 -0.179547,0.28465 -0.269246,0.6371 -0.269246,1.05737 0,0.4204 0.07227,0.77506 0.216728,1.06413 0.144538,0.28889 0.350178,0.52537 0.617333,0.70919 0.267048,0.18398 0.586634,0.31533 0.959029,0.39416 0.372095,0.0789 0.781581,0.11818 1.228225,0.11818 0.551668,0 1.046292,-0.0439 1.484297,-0.1313 0.43774,-0.0876 0.809933,-0.17939 1.116633,-0.27578 v -3.94082 c 0,-0.9633 -0.256146,-1.66382 -0.768633,-2.10187 z m -1.044246,4.91298 c -0.0964,0.0176 -0.210132,0.0374 -0.341492,0.0591 -0.131305,0.0221 -0.262708,0.033 -0.394173,0.033 -0.11386,0 -0.247426,-0.007 -0.400564,-0.0198 -0.153211,-0.0132 -0.297851,-0.048 -0.4335,-0.10502 -0.135853,-0.0568 -0.251881,-0.14658 -0.348086,-0.26926 -0.0964,-0.12252 -0.14448,-0.29765 -0.14448,-0.52552 0,-0.34145 0.124767,-0.58876 0.374294,-0.74209 0.249736,-0.1532 0.58898,-0.22989 1.018148,-0.22989 0.09628,0 0.205591,0.007 0.328361,0.0197 0.122462,0.0131 0.2365,0.0286 0.341492,0.046 z m 7.305498,-0.22331 c -0.149088,0.0525 -0.278187,0.0964 -0.387635,0.13127 -0.109607,0.0352 -0.216818,0.0613 -0.321822,0.0788 -0.105128,0.0176 -0.212535,0.0286 -0.321853,0.0328 -0.109614,0.004 -0.229864,0.007 -0.361237,0.007 -0.507983,0 -0.910888,-0.16195 -1.208456,-0.48604 -0.297808,-0.32392 -0.446676,-0.84072 -0.446676,-1.55 0,-0.65684 0.137997,-1.16261 0.413739,-1.51723 0.275871,-0.35459 0.685129,-0.53201 1.228366,-0.53201 0.253725,0 0.479391,0.0154 0.676508,0.046 0.196902,0.0308 0.426797,0.09 0.689505,0.17733 0.113632,-0.22766 0.197062,-0.46633 0.24965,-0.71594 0.05242,-0.24955 0.07882,-0.47489 0.07882,-0.67645 -0.183924,-0.07 -0.350267,-0.12678 -0.499104,-0.17086 -0.149033,-0.0437 -0.297869,-0.0787 -0.446681,-0.1049 -0.149039,-0.0263 -0.304451,-0.0437 -0.466358,-0.0526 -0.162121,-0.008 -0.339446,-0.0132 -0.531954,-0.0132 -0.543053,0 -1.020342,0.092 -1.431832,0.27595 -0.411735,0.18387 -0.755317,0.43796 -1.031218,0.76185 -0.275797,0.3241 -0.48164,0.70074 -0.617388,1.12976 -0.135913,0.4291 -0.203606,0.89316 -0.203606,1.39236 0,0.50802 0.07008,0.97853 0.210347,1.41202 0.139933,0.43366 0.348031,0.80794 0.623816,1.12316 0.275827,0.31531 0.623858,0.56279 1.044337,0.74217 0.420443,0.17933 0.914895,0.2693 1.484346,0.2693 0.332662,0 0.652334,-0.0198 0.958874,-0.0591 0.306553,-0.0393 0.634969,-0.12906 0.985298,-0.26931 0,-0.31526 -0.03515,-0.58887 -0.105245,-0.82097 -0.0702,-0.2319 -0.157599,-0.43557 -0.262536,-0.61081 z m 7.824928,0.10501 c -0.0964,0.0176 -0.20813,0.0374 -0.3349,0.0592 -0.12706,0.0218 -0.25612,0.0327 -0.38752,0.0327 -0.16651,0 -0.311,-0.0174 -0.433447,-0.0525 -0.122776,-0.0349 -0.225784,-0.10065 -0.308796,-0.19707 -0.08329,-0.0962 -0.146833,-0.2277 -0.190474,-0.39404 -0.04387,-0.16633 -0.06572,-0.38533 -0.06572,-0.65682 v -2.66663 h 1.589587 c 0.0262,-0.13995 0.0436,-0.26695 0.0524,-0.38099 0.009,-0.11363 0.0132,-0.2319 0.0132,-0.35457 0,-0.11375 -0.004,-0.22343 -0.0132,-0.32839 -0.009,-0.10513 -0.0261,-0.2234 -0.0524,-0.3548 h -1.589587 v -1.98333 h -0.301999 l -2.456499,3.13931 0.06572,0.26277 h 0.853882 v 3.07384 c 0,0.84072 0.210187,1.44727 0.630464,1.81926 0.420276,0.37231 1.028865,0.55838 1.825779,0.55838 0.42901,0 0.84515,-0.0482 1.24806,-0.14439 0.009,-0.0613 0.0151,-0.12494 0.0198,-0.19067 0.004,-0.0657 0.007,-0.14654 0.007,-0.24297 0,-0.14005 -0.0131,-0.29991 -0.0394,-0.47952 -0.0262,-0.17936 -0.0702,-0.35236 -0.13133,-0.51883 z m -28.195391,1.49749 c 0.315182,0.0525 0.617325,0.0789 0.906301,0.0789 0.297655,0 0.604297,-0.0263 0.919433,-0.0789 v -6.79134 h -1.825734 z m 29.039421,-6.79134 v 6.79134 c 0.31523,0.0525 0.61753,0.0789 0.90651,0.0789 0.29744,0 0.6041,-0.0263 0.91944,-0.0789 v -6.79134 z"
         id="path9889" />
      <path
         inkscape:connector-curvature="0"
         style="opacity:1;vector-effect:none;fill:#2b2b2b;fill-opacity:1;stroke:none;stroke-width:0.01160036;stroke-linecap:butt;stroke-linejoin:miter;stroke-miterlimit:4;stroke-dasharray:none;stroke-dashoffset:0;stroke-opacity:1"
         d="m 94.267411,257.07393 c 0.313146,0.0522 0.613339,0.0784 0.900436,0.0784 0.295731,0 0.600397,-0.0262 0.913488,-0.0784 v -6.74741 h -1.813924 z"
         id="path9891" />
      <path
         style="fill:#bfd730;stroke-width:0.01160036"
         inkscape:connector-curvature="0"
         d="m 93.655493,248.23653 c 0,-0.8056 0.653249,-1.45878 1.45885,-1.45878 0.80554,0 1.458691,0.65318 1.458691,1.45878 0,0.80583 -0.653151,1.45871 -1.458691,1.45871 -0.805601,0 -1.45885,-0.65288 -1.45885,-1.45871 z"
         id="path9893" />
    </g>
  </g>
</svg>
