<?xml version="1.0" encoding="UTF-8" standalone="no"?>
<!-- Created with Inkscape (http://www.inkscape.org/) -->

<svg
   xmlns:dc="http://purl.org/dc/elements/1.1/"
   xmlns:cc="http://creativecommons.org/ns#"
   xmlns:rdf="http://www.w3.org/1999/02/22-rdf-syntax-ns#"
   xmlns:svg="http://www.w3.org/2000/svg"
   xmlns="http://www.w3.org/2000/svg"
   xmlns:sodipodi="http://sodipodi.sourceforge.net/DTD/sodipodi-0.dtd"
   xmlns:inkscape="http://www.inkscape.org/namespaces/inkscape"
   width="268.88791mm"
   height="12.69474mm"
   viewBox="0 0 268.88791 12.69474"
   version="1.1"
   id="svg1342"
   inkscape:version="0.92.3 (2405546, 2018-03-11)"
   sodipodi:docname="landing_page_module_dotties.svg">
  <defs
     id="defs1336" />
  <sodipodi:namedview
     id="base"
     pagecolor="#ffffff"
     bordercolor="#666666"
     borderopacity="1.0"
     inkscape:pageopacity="0.0"
     inkscape:pageshadow="2"
     inkscape:zoom="0.98994949"
     inkscape:cx="638.71961"
     inkscape:cy="-90.625387"
     inkscape:document-units="mm"
     inkscape:current-layer="layer1"
     showgrid="false"
     fit-margin-top="0"
     fit-margin-left="0"
     fit-margin-right="0"
     fit-margin-bottom="0"
     inkscape:window-width="1920"
     inkscape:window-height="1017"
     inkscape:window-x="-8"
     inkscape:window-y="-8"
     inkscape:window-maximized="1" />
  <metadata
     id="metadata1339">
    <rdf:RDF>
      <cc:Work
         rdf:about="">
        <dc:format>image/svg+xml</dc:format>
        <dc:type
           rdf:resource="http://purl.org/dc/dcmitype/StillImage" />
        <dc:title></dc:title>
      </cc:Work>
    </rdf:RDF>
  </metadata>
  <g
     inkscape:label="Layer 1"
     inkscape:groupmode="layer"
     id="layer1"
     transform="translate(28.610627,-142.48596)">
    <path
       inkscape:connector-curvature="0"
       style="opacity:1;vector-effect:none;fill:#444444;fill-opacity:1;stroke:none;stroke-width:0.98502427;stroke-linecap:butt;stroke-linejoin:miter;stroke-miterlimit:4;stroke-dasharray:none;stroke-dashoffset:0;stroke-opacity:1;enable-background:new"
       d="m 105.38386,146.38472 a 2.9134824,1.9900223 5.4275777 0 0 -1.62729,0.29508 2.9134824,1.9900223 5.4275777 0 0 -0.65321,2.75228 2.9134824,1.9900223 5.4275777 0 0 4.05869,0.65319 2.9134824,1.9900223 5.4275777 0 0 0.48109,-0.28008 l 1.75392,0.71985 -1.08625,-2.37143 a 2.9134824,1.9900223 5.4275777 0 0 -0.49609,-0.82062 2.9134824,1.9900223 5.4275777 0 0 -2.43086,-0.94827 z m -0.13488,0.8475 a 1.6776845,1.145924 5.4275678 0 1 1.56683,0.5457 1.6776845,1.145924 5.4275678 0 1 -0.37621,1.58492 1.6776845,1.145924 5.4275678 0 1 -2.3368,-0.37569 1.6776845,1.145924 5.4275678 0 1 0.37621,-1.58492 1.6776845,1.145924 5.4275678 0 1 0.76997,-0.17001 z"
       id="path9182" />
    <circle
       r="5.2117558"
       cy="-105.59315"
       cx="148.37592"
       id="path3193-7-4"
       style="opacity:1;vector-effect:none;fill:#616161;fill-opacity:1;stroke:none;stroke-width:8;stroke-linecap:butt;stroke-linejoin:miter;stroke-miterlimit:4;stroke-dasharray:none;stroke-dashoffset:0;stroke-opacity:1;enable-background:new"
       transform="rotate(90)" />
    <circle
       r="5.8665662"
       cy="-90.98764"
       cx="148.35252"
       id="path3193-7-2"
       style="opacity:1;vector-effect:none;fill:#616161;fill-opacity:1;stroke:none;stroke-width:9.00512791;stroke-linecap:butt;stroke-linejoin:miter;stroke-miterlimit:4;stroke-dasharray:none;stroke-dashoffset:0;stroke-opacity:1;enable-background:new"
       transform="rotate(90)" />
    <path
       style="color:#000000;font-style:normal;font-variant:normal;font-weight:normal;font-stretch:normal;font-size:medium;line-height:normal;font-family:sans-serif;font-variant-ligatures:normal;font-variant-position:normal;font-variant-caps:normal;font-variant-numeric:normal;font-variant-alternates:normal;font-feature-settings:normal;text-indent:0;text-align:start;text-decoration:none;text-decoration-line:none;text-decoration-style:solid;text-decoration-color:#000000;letter-spacing:normal;word-spacing:normal;text-transform:none;writing-mode:lr-tb;direction:ltr;text-orientation:mixed;dominant-baseline:auto;baseline-shift:baseline;text-anchor:start;white-space:normal;shape-padding:0;clip-rule:nonzero;display:inline;overflow:visible;visibility:visible;opacity:1;isolation:auto;mix-blend-mode:normal;color-interpolation:sRGB;color-interpolation-filters:linearRGB;solid-color:#000000;solid-opacity:1;vector-effect:none;fill:#616161;fill-opacity:1;fill-rule:nonzero;stroke:none;stroke-width:0.51034343;stroke-linecap:butt;stroke-linejoin:miter;stroke-miterlimit:4;stroke-dasharray:none;stroke-dashoffset:0;stroke-opacity:1;color-rendering:auto;image-rendering:auto;shape-rendering:auto;text-rendering:auto;enable-background:accumulate"
       d="m 92.553198,145.54084 a 0.66208605,0.66208605 0 0 0 -0.610301,0.40566 h -0.363284 c -0.33166,0 -0.596294,0.19291 -0.777213,0.4222 -0.180912,0.22929 -0.309359,0.50521 -0.429948,0.76739 -0.120581,0.26219 -0.233286,0.51287 -0.347266,0.67593 -0.11398,0.16306 -0.193699,0.21498 -0.289388,0.21498 h -0.476456 a 0.78997515,0.78997515 0 0 0 -0.715719,-0.45786 0.78997515,0.78997515 0 0 0 -0.789618,0.79014 0.78997515,0.78997515 0 0 0 0.789618,0.79013 0.78997515,0.78997515 0 0 0 0.706932,-0.43925 h 0.485243 c 0.0957,0 0.175408,0.054 0.289388,0.21704 0.11398,0.16306 0.226685,0.41374 0.347266,0.67593 0.120589,0.26218 0.249036,0.53603 0.429948,0.76533 0.180919,0.22929 0.445553,0.42219 0.777213,0.42219 h 0.35605 a 0.66208605,0.66208605 0 0 0 0.617535,0.42427 0.66208605,0.66208605 0 0 0 0.661974,-0.66198 0.66208605,0.66208605 0 0 0 -0.661974,-0.66198 0.66208605,0.66208605 0 0 0 -0.602549,0.38965 h -0.371036 c -0.146719,0 -0.249872,-0.0677 -0.376721,-0.22841 -0.126842,-0.16076 -0.246754,-0.4041 -0.365353,-0.66198 -0.11861,-0.25788 -0.236138,-0.52904 -0.394809,-0.75603 -7.93e-4,-10e-4 -0.0021,-0.002 -0.0031,-0.004 0.04784,2e-5 0.08434,-3e-5 0.132291,0 0.68879,5.3e-4 1.04026,5.3e-4 1.374077,0.001 a 0.66208605,0.66208605 0 0 0 0.6072,0.40049 0.66208605,0.66208605 0 0 0 0.661974,-0.66198 0.66208605,0.66208605 0 0 0 -0.661974,-0.66249 0.66208605,0.66208605 0 0 0 -0.613399,0.41445 c -0.335005,-5.3e-4 -0.680263,-0.001 -1.365809,-0.002 -0.05267,-4e-5 -0.09314,2e-5 -0.145727,0 0.0044,-0.006 0.01019,-0.0115 0.01447,-0.0176 0.158671,-0.22699 0.276198,-0.49608 0.394809,-0.75396 0.118599,-0.25788 0.238511,-0.50328 0.365352,-0.66404 0.126849,-0.16076 0.230002,-0.22634 0.376722,-0.22634 h 0.363291 a 0.66208605,0.66208605 0 0 0 0.610301,0.40669 0.66208605,0.66208605 0 0 0 0.661975,-0.66198 0.66208605,0.66208605 0 0 0 -0.661975,-0.66249 z"
       id="path8659-8"
       inkscape:connector-curvature="0" />
    <path
       inkscape:connector-curvature="0"
       id="path3270"
       d="M 240.27729,148.35277 H -28.610627"
       style="display:inline;fill:#616161;fill-opacity:1;stroke:#616161;stroke-width:0.38567466;stroke-linecap:butt;stroke-linejoin:miter;stroke-miterlimit:4;stroke-dasharray:none;stroke-opacity:1;enable-background:new" />
    <ellipse
       style="opacity:1;vector-effect:none;fill:#6a6a6a;fill-opacity:1;stroke:none;stroke-width:0.52604687;stroke-linecap:butt;stroke-linejoin:miter;stroke-miterlimit:4;stroke-dasharray:none;stroke-dashoffset:0;stroke-opacity:1;enable-background:new"
       id="path9315"
       cx="105.28861"
       cy="154.53342"
       rx="4.5309896"
       ry="0.64728421" />
    <circle
       r="5.2117558"
       cy="-75.982994"
       cx="148.37592"
       id="path3193-7-2-6"
       style="opacity:1;vector-effect:none;fill:#616161;fill-opacity:1;stroke:none;stroke-width:8;stroke-linecap:butt;stroke-linejoin:miter;stroke-miterlimit:4;stroke-dasharray:none;stroke-dashoffset:0;stroke-opacity:1;enable-background:new"
       transform="rotate(90)" />
    <circle
       r="5.2117558"
       cy="-62.388824"
       cx="148.37592"
       id="path3193-7-2-6-0"
       style="opacity:1;vector-effect:none;fill:#616161;fill-opacity:1;stroke:none;stroke-width:8;stroke-linecap:butt;stroke-linejoin:miter;stroke-miterlimit:4;stroke-dasharray:none;stroke-dashoffset:0;stroke-opacity:1;enable-background:new"
       transform="rotate(90)" />
    <circle
       r="5.2117558"
       cy="-49.456139"
       cx="148.37592"
       id="path3193-7-2-6-0-0"
       style="opacity:1;vector-effect:none;fill:#616161;fill-opacity:1;stroke:none;stroke-width:8;stroke-linecap:butt;stroke-linejoin:miter;stroke-miterlimit:4;stroke-dasharray:none;stroke-dashoffset:0;stroke-opacity:1;enable-background:new"
       transform="rotate(90)" />
    <path
       inkscape:connector-curvature="0"
       d="m 76.805682,148.2904 c 0,-0.35341 -0.28916,-0.64256 -0.642572,-0.64256 -0.353399,0 -0.642559,0.28915 -0.642559,0.64256 0,0.35341 0.28916,0.64256 0.642559,0.64256 0.353412,0 0.642572,-0.28915 0.642572,-0.64256 z m -0.642572,-2.89152 c -1.596758,0 -2.89151,1.29476 -2.89151,2.89152 h -0.96384 l 1.28511,1.28512 1.285132,-1.28512 h -0.96384 c 0,-1.24335 1.005599,-2.24896 2.248948,-2.24896 1.243361,0 2.248961,1.00561 2.248961,2.24896 0,1.24335 -1.0056,2.24896 -2.248961,2.24896 -0.48513,0 -0.934919,-0.15743 -1.304388,-0.41767 l -0.456221,0.46265 c 0.488349,0.37268 1.09878,0.59758 1.760609,0.59758 1.596771,0 2.89152,-1.29476 2.89152,-2.89152 0,-1.59676 -1.294749,-2.89152 -2.89152,-2.89152 z"
       id="path9369"
       style="fill:#444444;fill-opacity:1;stroke-width:0.32127973;enable-background:new" />
    <path
       id="path9421"
       d="m 53.266851,146.90446 c 0,0.37055 -0.303181,0.67373 -0.67373,0.67373 -0.0606,0 -0.117901,-0.007 -0.171801,-0.0236 l -1.199259,1.19588 c 0.0168,0.0539 0.0236,0.11454 0.0236,0.17517 0,0.37056 -0.303167,0.67374 -0.67373,0.67374 -0.370559,0 -0.673729,-0.30318 -0.673729,-0.67374 0,-0.0606 0.006,-0.12127 0.0236,-0.17517 l -0.858958,-0.85901 c -0.0539,0.0168 -0.114591,0.0236 -0.17517,0.0236 -0.0606,0 -0.121211,-0.007 -0.17517,-0.0236 l -1.53275,1.53611 c 0.0168,0.0539 0.0236,0.11117 0.0236,0.17181 0,0.37055 -0.303178,0.67373 -0.673729,0.67373 -0.37056,0 -0.673741,-0.30318 -0.673741,-0.67373 0,-0.37056 0.303181,-0.67374 0.673741,-0.67374 0.0606,0 0.117901,0.007 0.171791,0.0236 l 1.536118,-1.53274 c -0.0168,-0.0539 -0.0236,-0.11454 -0.0236,-0.17517 0,-0.37056 0.303189,-0.67374 0.67374,-0.67374 0.370549,0 0.673741,0.30318 0.673741,0.67374 0,0.0606 -0.006,0.12127 -0.0236,0.17517 l 0.859009,0.85901 c 0.0538,-0.0169 0.114581,-0.0236 0.17517,-0.0236 0.0606,0 0.121211,0.007 0.17517,0.0236 l 1.19588,-1.19925 c -0.0168,-0.0539 -0.0236,-0.11116 -0.0236,-0.1718 0,-0.37055 0.303178,-0.67373 0.673738,-0.67373 0.370551,0 0.673732,0.30318 0.673732,0.67373 z"
       clip-path="url(#b)"
       inkscape:connector-curvature="0"
       style="fill:#444444;fill-opacity:1;stroke-width:0.33686686;enable-background:new" />
    <g
       style="enable-background:new"
       id="g10204"
       transform="translate(-159.60381,103.63129)">
      <circle
         transform="rotate(90)"
         style="opacity:1;vector-effect:none;fill:#616161;fill-opacity:1;stroke:none;stroke-width:8;stroke-linecap:butt;stroke-linejoin:miter;stroke-miterlimit:4;stroke-dasharray:none;stroke-dashoffset:0;stroke-opacity:1"
         id="path3193"
         cx="44.744629"
         cy="-298.85886"
         r="5.2117558" />
      <path
         style="fill:#444444;fill-opacity:1;stroke-width:0.29765627"
         id="path9433"
         d="m 300.35157,44.490677 c 0.41077,0 0.74117,-0.333374 0.74117,-0.74414 0,-0.410766 -0.3304,-0.744142 -0.74117,-0.744142 -0.41076,0 -0.74413,0.333376 -0.74413,0.744142 0,0.410766 0.33337,0.74414 0.74413,0.74414 z m -2.23242,-0.297656 c 0.49411,0 0.88999,-0.398859 0.88999,-0.892969 0,-0.49411 -0.39588,-0.892968 -0.88999,-0.892968 -0.49411,0 -0.89296,0.398858 -0.89296,0.892968 0,0.49411 0.39885,0.892969 0.89296,0.892969 z m 2.23242,0.89297 c -0.5447,0 -1.6371,0.273842 -1.6371,0.818554 v 0.669727 h 3.27421 v -0.669727 c 0,-0.544712 -1.0924,-0.818554 -1.63711,-0.818554 z m -2.23242,-0.297658 c -0.69354,0 -2.08359,0.348259 -2.08359,1.041798 v 0.744141 h 2.08359 v -0.669727 c 0,-0.253008 0.0982,-0.696516 0.70544,-1.032867 -0.25896,-0.05357 -0.509,-0.08334 -0.70544,-0.08334 z"
         inkscape:connector-curvature="0" />
      <circle
         transform="rotate(90)"
         style="opacity:1;vector-effect:none;fill:#616161;fill-opacity:1;stroke:none;stroke-width:8;stroke-linecap:butt;stroke-linejoin:miter;stroke-miterlimit:4;stroke-dasharray:none;stroke-dashoffset:0;stroke-opacity:1;enable-background:new"
         id="path3193-1"
         cx="44.744629"
         cy="-314.48077"
         r="5.2117558" />
      <path
         style="fill:#444444;fill-opacity:1;stroke-width:0.21426776"
         id="path9488"
         d="m 315.94702,46.194673 0.42853,0.214266 v -3.428283 c 0,-0.235695 -0.19285,-0.428536 -0.42853,-0.428536 h -2.14483 c -0.23569,0 -0.42639,0.192841 -0.42639,0.428536 h 2.14269 c 0.23569,0 0.42853,0.192841 0.42853,0.428536 z m -0.85708,-2.785481 h -2.14268 c -0.23569,0 -0.42852,0.192841 -0.42852,0.428535 v 3.428284 l 1.49987,-0.642803 1.49988,0.642803 v -3.428284 c 0,-0.235694 -0.19285,-0.428535 -0.42855,-0.428535 z"
         inkscape:connector-curvature="0" />
    </g>
    <path
       inkscape:connector-curvature="0"
       d="M 64.784531,148.00739 H 64.41271 v -0.99151 c 0,-0.27267 -0.223089,-0.49576 -0.49575,-0.49576 h -0.991518 v -0.37182 c 0,-0.34207 -0.277622,-0.6197 -0.619702,-0.6197 -0.342069,0 -0.619688,0.27763 -0.619688,0.6197 v 0.37182 h -0.991521 c -0.272661,0 -0.493289,0.22309 -0.493289,0.49576 v 0.94194 h 0.36935 c 0.36934,0 0.669269,0.29993 0.669269,0.66927 0,0.36934 -0.299929,0.66927 -0.669269,0.66927 h -0.371811 v 0.94194 c 0,0.27267 0.223089,0.49576 0.49575,0.49576 h 0.94194 v -0.37182 c 0,-0.36934 0.29994,-0.66927 0.669269,-0.66927 0.36934,0 0.66928,0.29993 0.66928,0.66927 v 0.37182 h 0.94194 c 0.272661,0 0.49575,-0.22309 0.49575,-0.49576 v -0.99151 h 0.371821 c 0.34207,0 0.6197,-0.27763 0.6197,-0.6197 0,-0.34207 -0.27763,-0.6197 -0.6197,-0.6197 z"
       id="path9504"
       style="fill:#444444;fill-opacity:1;stroke-width:0.24787897;enable-background:new" />
    <g
       id="g11955"
       transform="translate(-198.9341,100.73622)"
       style="opacity:1;fill:#00c28d;fill-opacity:1;enable-background:new">
      <circle
         transform="rotate(90)"
         style="opacity:1;vector-effect:none;fill:#00c28d;fill-opacity:1;stroke:none;stroke-width:8;stroke-linecap:butt;stroke-linejoin:miter;stroke-miterlimit:4;stroke-dasharray:none;stroke-dashoffset:0;stroke-opacity:1;enable-background:new"
         id="path3193-7-4-6"
         cx="47.625004"
         cy="-304.53543"
         r="5.2117558" />
      <path
         id="path9277-9"
         d="m 304.32614,45.633806 a 2.9134824,1.9900223 5.4275777 0 0 -1.62729,0.295071 2.9134824,1.9900223 5.4275777 0 0 -0.65321,2.752288 2.9134824,1.9900223 5.4275777 0 0 4.05869,0.65319 2.9134824,1.9900223 5.4275777 0 0 0.48109,-0.280087 l 1.75392,0.719854 -1.08625,-2.371434 a 2.9134824,1.9900223 5.4275777 0 0 -0.49609,-0.820621 2.9134824,1.9900223 5.4275777 0 0 -2.43086,-0.948261 z m 0.032,0.846976 a 1.6776845,1.145924 5.4275678 0 1 1.39991,0.546219 1.6776845,1.145924 5.4275678 0 1 -0.37621,1.584918 1.6776845,1.145924 5.4275678 0 1 -2.3368,-0.375688 1.6776845,1.145924 5.4275678 0 1 0.37621,-1.584917 1.6776845,1.145924 5.4275678 0 1 0.76997,-0.170016 1.6776845,1.145924 5.4275678 0 1 0.16692,-5.29e-4 z m 0.0832,0.499711 a 0.66999863,0.66999863 0 0 0 -0.48369,0.196371 0.66999863,0.66999863 0 0 0 0,0.947229 0.66999863,0.66999863 0 0 0 0.94774,0 0.66999863,0.66999863 0 0 0 0,-0.947229 0.66999863,0.66999863 0 0 0 -0.46405,-0.196371 z"
         style="opacity:1;vector-effect:none;fill:#00c28d;fill-opacity:1;stroke:none;stroke-width:0.47561851;stroke-linecap:butt;stroke-linejoin:miter;stroke-miterlimit:4;stroke-dasharray:none;stroke-dashoffset:0;stroke-opacity:1;enable-background:new"
         inkscape:connector-curvature="0" />
    </g>
    <path
       inkscape:connector-curvature="0"
       style="opacity:1;vector-effect:none;fill:#ffffff;fill-opacity:1;stroke:none;stroke-width:0.47561851;stroke-linecap:butt;stroke-linejoin:miter;stroke-miterlimit:4;stroke-dasharray:none;stroke-dashoffset:0;stroke-opacity:1;enable-background:new"
       d="m 105.38386,146.38472 a 2.9134824,1.9900223 5.4275777 0 0 -1.62729,0.29508 2.9134824,1.9900223 5.4275777 0 0 -0.65321,2.75228 2.9134824,1.9900223 5.4275777 0 0 4.05869,0.65319 2.9134824,1.9900223 5.4275777 0 0 0.48109,-0.28008 l 1.75392,0.71985 -1.08625,-2.37143 a 2.9134824,1.9900223 5.4275777 0 0 -0.49609,-0.82062 2.9134824,1.9900223 5.4275777 0 0 -2.43086,-0.94827 z m 0.032,0.84698 a 1.6776845,1.145924 5.4275678 0 1 1.39991,0.54622 1.6776845,1.145924 5.4275678 0 1 -0.37621,1.58492 1.6776845,1.145924 5.4275678 0 1 -2.3368,-0.37569 1.6776845,1.145924 5.4275678 0 1 0.37621,-1.58492 1.6776845,1.145924 5.4275678 0 1 0.76997,-0.17001 1.6776845,1.145924 5.4275678 0 1 0.16692,-5.3e-4 z m 0.0832,0.49971 a 0.66999863,0.66999863 0 0 0 -0.48369,0.19637 0.66999863,0.66999863 0 0 0 0,0.94723 0.66999863,0.66999863 0 0 0 0.94774,0 0.66999863,0.66999863 0 0 0 0,-0.94723 0.66999863,0.66999863 0 0 0 -0.46405,-0.19637 z"
       id="path9277" />
    <path
       style="color:#000000;font-style:normal;font-variant:normal;font-weight:normal;font-stretch:normal;font-size:medium;line-height:normal;font-family:sans-serif;font-variant-ligatures:normal;font-variant-position:normal;font-variant-caps:normal;font-variant-numeric:normal;font-variant-alternates:normal;font-feature-settings:normal;text-indent:0;text-align:start;text-decoration:none;text-decoration-line:none;text-decoration-style:solid;text-decoration-color:#000000;letter-spacing:normal;word-spacing:normal;text-transform:none;writing-mode:lr-tb;direction:ltr;text-orientation:mixed;dominant-baseline:auto;baseline-shift:baseline;text-anchor:start;white-space:normal;shape-padding:0;clip-rule:nonzero;display:inline;overflow:visible;visibility:visible;opacity:1;isolation:auto;mix-blend-mode:normal;color-interpolation:sRGB;color-interpolation-filters:linearRGB;solid-color:#000000;solid-opacity:1;vector-effect:none;fill:#444444;fill-opacity:1;fill-rule:nonzero;stroke:none;stroke-width:0.51034343;stroke-linecap:butt;stroke-linejoin:miter;stroke-miterlimit:4;stroke-dasharray:none;stroke-dashoffset:0;stroke-opacity:1;color-rendering:auto;image-rendering:auto;shape-rendering:auto;text-rendering:auto;enable-background:accumulate"
       d="m 92.5534,145.54107 a 0.66208605,0.66208605 0 0 0 -0.610298,0.40618 h -0.364318 c -0.331658,0 -0.596813,0.19239 -0.77773,0.42168 -0.180919,0.22929 -0.306782,0.50572 -0.427365,0.76791 -0.120584,0.26219 -0.235869,0.5108 -0.349848,0.67386 -0.11398,0.16306 -0.193178,0.21652 -0.288872,0.21652 h -0.475425 a 0.78997515,0.78997515 0 0 0 -0.715716,-0.45785 0.78997515,0.78997515 0 0 0 -0.790134,0.79013 0.78997515,0.78997515 0 0 0 0.790134,0.78962 0.78997515,0.78997515 0 0 0 0.706416,-0.43822 h 0.484725 c 0.0957,0 0.174892,0.0539 0.288872,0.21704 0.113979,0.16306 0.229264,0.41322 0.349848,0.67542 0.120583,0.26217 0.246446,0.53655 0.427365,0.76584 0.180917,0.22929 0.446072,0.42168 0.77773,0.42168 h 0.357084 a 0.66208605,0.66208605 0 0 0 0.617532,0.42426 0.66208605,0.66208605 0 0 0 0.661977,-0.66249 0.66208605,0.66208605 0 0 0 -0.661977,-0.66197 0.66208605,0.66208605 0 0 0 -0.603581,0.39067 h -0.371035 c -0.146717,0 -0.250394,-0.0677 -0.377238,-0.22841 -0.126847,-0.16076 -0.246748,-0.40616 -0.365353,-0.66404 -0.118604,-0.25788 -0.235619,-0.52697 -0.394292,-0.75396 -0.001,-0.001 -0.0026,-0.003 -0.0036,-0.004 0.04855,3e-5 0.08573,-3e-5 0.134358,0 0.689097,4.5e-4 1.040474,10e-4 1.373561,0.002 a 0.66208605,0.66208605 0 0 0 0.607197,0.39946 0.66208605,0.66208605 0 0 0 0.661977,-0.66197 0.66208605,0.66208605 0 0 0 -0.661977,-0.66198 0.66208605,0.66208605 0 0 0 -0.613915,0.41497 c -0.335786,-3.6e-4 -0.681699,-8.4e-4 -1.366843,-0.002 -0.05257,-3e-5 -0.09277,3e-5 -0.145209,0 0.0044,-0.006 0.01019,-0.0114 0.01447,-0.0176 0.158673,-0.227 0.275688,-0.49607 0.394292,-0.75395 0.118605,-0.25788 0.238506,-0.50329 0.365353,-0.66405 0.126844,-0.16076 0.230521,-0.22892 0.377238,-0.22892 h 0.363802 a 0.66208605,0.66208605 0 0 0 0.610814,0.40824 0.66208605,0.66208605 0 0 0 0.661977,-0.66197 0.66208605,0.66208605 0 0 0 -0.661977,-0.66198 z"
       id="path8659"
       inkscape:connector-curvature="0" />
  </g>
</svg>
