<?xml version="1.0" encoding="UTF-8" standalone="no"?>
<!-- Created with Inkscape (http://www.inkscape.org/) -->

<svg
   xmlns:dc="http://purl.org/dc/elements/1.1/"
   xmlns:cc="http://creativecommons.org/ns#"
   xmlns:rdf="http://www.w3.org/1999/02/22-rdf-syntax-ns#"
   xmlns:svg="http://www.w3.org/2000/svg"
   xmlns="http://www.w3.org/2000/svg"
   xmlns:sodipodi="http://sodipodi.sourceforge.net/DTD/sodipodi-0.dtd"
   xmlns:inkscape="http://www.inkscape.org/namespaces/inkscape"
   width="13.06788mm"
   height="13.06846mm"
   viewBox="0 0 13.06788 13.06846"
   version="1.1"
   id="svg4114"
   inkscape:version="0.92.3 (2405546, 2018-03-11)"
   sodipodi:docname="module_icon__company_explorer__dark.svg">
  <defs
     id="defs4108" />
  <sodipodi:namedview
     id="base"
     pagecolor="#ffffff"
     bordercolor="#666666"
     borderopacity="1.0"
     inkscape:pageopacity="0.0"
     inkscape:pageshadow="2"
     inkscape:zoom="0.35"
     inkscape:cx="-789.59049"
     inkscape:cy="76.124888"
     inkscape:document-units="mm"
     inkscape:current-layer="layer1"
     showgrid="false"
     fit-margin-top="0"
     fit-margin-left="0"
     fit-margin-right="0"
     fit-margin-bottom="0"
     inkscape:window-width="1366"
     inkscape:window-height="705"
     inkscape:window-x="-8"
     inkscape:window-y="-8"
     inkscape:window-maximized="1" />
  <metadata
     id="metadata4111">
    <rdf:RDF>
      <cc:Work
         rdf:about="">
        <dc:format>image/svg+xml</dc:format>
        <dc:type
           rdf:resource="http://purl.org/dc/dcmitype/StillImage" />
        <dc:title></dc:title>
      </cc:Work>
    </rdf:RDF>
  </metadata>
  <g
     inkscape:label="Layer 1"
     inkscape:groupmode="layer"
     id="layer1"
     transform="translate(-172.62677,-155.90625)">
    <path
       style="fill:#303030;fill-opacity:1;stroke-width:0.48956427"
       d="m 173.77451,155.90635 a 1.1478926,1.1478926 0 0 0 -1.14774,1.14824 1.1478926,1.1478926 0 0 0 1.14774,1.14774 1.1478926,1.1478926 0 0 0 0.35139,-0.0568 l 1.40353,1.43504 c -0.0538,0.0783 -0.10308,0.15687 -0.15195,0.23514 -0.0196,0.0342 -0.0439,0.0684 -0.0635,0.10284 -0.044,0.0735 -0.083,0.15158 -0.12195,0.22995 -0.0243,0.049 -0.0493,0.10274 -0.0786,0.15658 -0.0294,0.0685 -0.0635,0.13743 -0.093,0.21085 -0.049,0.1175 -0.0933,0.23468 -0.13229,0.35708 l -0.0439,0.14676 c -0.0243,0.0979 -0.0487,0.19095 -0.0682,0.28888 -0.009,0.0538 -0.0196,0.10789 -0.0341,0.16174 -0.0196,0.0979 -0.0346,0.19587 -0.0444,0.29868 -0.006,0.049 -0.0146,0.0977 -0.0146,0.14677 -0.0148,0.14192 -0.0243,0.29369 -0.0243,0.44545 0,2.7024 2.19292,4.89582 4.89532,4.89582 0.15174,0 0.30374,-0.009 0.45061,-0.0243 l 0.14677,-0.0151 c 0.0979,-0.009 0.20076,-0.0293 0.29869,-0.0439 0.0538,-0.009 0.10789,-0.0196 0.16174,-0.0341 0.0979,-0.0196 0.19068,-0.0444 0.28371,-0.0739 0.049,-0.0148 0.0978,-0.0243 0.14676,-0.0439 0.12232,-0.0392 0.24011,-0.083 0.35761,-0.13177 0.0735,-0.0294 0.14172,-0.0636 0.21032,-0.093 0.0538,-0.0244 0.1079,-0.0492 0.16174,-0.0786 0.0783,-0.0392 0.15185,-0.0784 0.22532,-0.12247 0.0342,-0.0196 0.0684,-0.044 0.10282,-0.0636 0.0783,-0.049 0.15634,-0.0976 0.23463,-0.15142 l 1.11929,1.09503 a 1.1478926,1.1478926 0 0 0 -0.0553,0.35036 1.1478926,1.1478926 0 0 0 1.14824,1.14827 1.1478926,1.1478926 0 0 0 1.14774,-1.14827 1.1478926,1.1478926 0 0 0 -1.14774,-1.14773 1.1478926,1.1478926 0 0 0 -0.52401,0.1266 l -1.00769,-0.98234 -2.3895,-2.38953 -0.69041,-0.69041 -0.76377,-0.76377 -0.1075,-0.108 -0.58237,-0.58241 -2.38901,-2.389 -1.29606,-1.32601 a 1.1478926,1.1478926 0 0 0 0.12557,-0.51935 1.1478926,1.1478926 0 0 0 -1.14771,-1.14824 z m 5.77947,1.55959 c -0.15176,0 -0.30353,0.0106 -0.44545,0.0196 -0.049,0 -0.0978,0.008 -0.14676,0.0146 -0.10282,0.01 -0.20079,0.0249 -0.29869,0.0444 -0.0538,0.0145 -0.10795,0.0251 -0.16174,0.0341 -0.0979,0.0196 -0.19061,0.049 -0.28371,0.0734 l -0.15193,0.0439 c -0.12239,0.039 -0.24011,0.0833 -0.35761,0.13229 -0.0734,0.0295 -0.14181,0.0636 -0.21031,0.093 -0.0538,0.0293 -0.10743,0.0536 -0.16124,0.078 -0.0735,0.039 -0.1519,0.0785 -0.22529,0.12248 -0.0344,0.0196 -0.0686,0.044 -0.10285,0.0636 -0.0783,0.0488 -0.15682,0.0981 -0.23513,0.15192 l 2.5554,2.5554 3.16261,-1.46865 -1.46865,3.16259 2.55075,2.56006 c 0.0538,-0.0783 0.10242,-0.15632 0.15142,-0.23461 0.0196,-0.0344 0.0445,-0.0686 0.0641,-0.10284 0.044,-0.0735 0.0827,-0.14701 0.12195,-0.2253 0.0293,-0.0539 0.0542,-0.10784 0.0785,-0.16176 0.0294,-0.0686 0.0636,-0.13682 0.093,-0.21032 0.0488,-0.11748 0.0931,-0.23529 0.13229,-0.35759 0.0196,-0.0488 0.0291,-0.10242 0.0439,-0.15142 0.0295,-0.093 0.0538,-0.18632 0.0734,-0.28421 0.0146,-0.0539 0.0251,-0.10734 0.0341,-0.16124 0.0146,-0.0979 0.0349,-0.20079 0.0439,-0.29869 l 0.0151,-0.14729 c 0.0153,-0.14687 0.0243,-0.29837 0.0243,-0.45008 v 0 c 0,-2.7024 -2.19342,-4.89532 -4.89583,-4.89532 z m -1.46915,4.67 1.69394,1.69397 -3.16259,1.46862 z"
       id="path14031"
       inkscape:connector-curvature="0" />
  </g>
</svg>
