<?xml version="1.0" encoding="UTF-8" standalone="no"?>
<!-- Created with Inkscape (http://www.inkscape.org/) -->

<svg
   xmlns:dc="http://purl.org/dc/elements/1.1/"
   xmlns:cc="http://creativecommons.org/ns#"
   xmlns:rdf="http://www.w3.org/1999/02/22-rdf-syntax-ns#"
   xmlns:svg="http://www.w3.org/2000/svg"
   xmlns="http://www.w3.org/2000/svg"
   xmlns:sodipodi="http://sodipodi.sourceforge.net/DTD/sodipodi-0.dtd"
   xmlns:inkscape="http://www.inkscape.org/namespaces/inkscape"
   width="12.508832mm"
   height="12.81315mm"
   viewBox="0 0 12.508832 12.81315"
   version="1.1"
   id="svg5813"
   inkscape:version="0.92.3 (2405546, 2018-03-11)"
   sodipodi:docname="module_icon__user_manager__light.svg">
  <defs
     id="defs5807" />
  <sodipodi:namedview
     id="base"
     pagecolor="#ffffff"
     bordercolor="#666666"
     borderopacity="1.0"
     inkscape:pageopacity="0.0"
     inkscape:pageshadow="2"
     inkscape:zoom="0.35"
     inkscape:cx="-513.50412"
     inkscape:cy="24.213833"
     inkscape:document-units="mm"
     inkscape:current-layer="layer1"
     showgrid="false"
     fit-margin-top="0"
     fit-margin-left="0"
     fit-margin-right="0"
     fit-margin-bottom="0"
     inkscape:window-width="1366"
     inkscape:window-height="705"
     inkscape:window-x="-8"
     inkscape:window-y="-8"
     inkscape:window-maximized="1" />
  <metadata
     id="metadata5810">
    <rdf:RDF>
      <cc:Work
         rdf:about="">
        <dc:format>image/svg+xml</dc:format>
        <dc:type
           rdf:resource="http://purl.org/dc/dcmitype/StillImage" />
        <dc:title></dc:title>
      </cc:Work>
    </rdf:RDF>
  </metadata>
  <g
     inkscape:label="Layer 1"
     inkscape:groupmode="layer"
     id="layer1"
     transform="translate(-99.578918,-142.42676)">
    <path
       style="fill:#ffffff;fill-opacity:1;stroke-width:0.62546486"
       d="m 103.95685,142.42676 c -1.03829,0 -1.87651,0.83823 -1.87651,1.87648 0,1.03826 0.83822,1.87651 1.87651,1.87651 1.03826,0 1.87044,-0.83825 1.87044,-1.87651 0,-1.03825 -0.83218,-1.87648 -1.87044,-1.87648 z m 4.69096,1.25099 c -0.86314,0 -1.56348,0.70034 -1.56348,1.56348 0,0.86315 0.70034,1.56403 1.56348,1.56403 0.86314,0 1.55741,-0.70088 1.55741,-1.56403 0,-0.86314 -0.69427,-1.56348 -1.55741,-1.56348 z m -4.69096,3.75244 c -1.45734,0 -4.377932,0.73223 -4.377932,2.18951 v 2.99077 a 8.6359963,8.6359963 0 0 0 4.377932,2.42949 v -5.26429 c 0,-0.53164 0.20621,-1.46351 1.4822,-2.17029 -0.54418,-0.11253 -1.06942,-0.17519 -1.4822,-0.17519 z m 4.69096,0.62549 c -1.14459,0 -3.43997,0.57539 -3.43997,1.71999 v 5.43564 a 8.6359963,8.6359963 0 0 0 0.57553,0.0286 8.6359963,8.6359963 0 0 0 6.30438,-2.74967 v -2.71452 c 0,-1.1446 -2.29534,-1.71999 -3.43994,-1.71999 z"
       id="path14826"
       inkscape:connector-curvature="0" />
  </g>
</svg>
