<?xml version="1.0" encoding="UTF-8" standalone="no"?>
<!-- Created with Inkscape (http://www.inkscape.org/) -->

<svg
   xmlns:dc="http://purl.org/dc/elements/1.1/"
   xmlns:cc="http://creativecommons.org/ns#"
   xmlns:rdf="http://www.w3.org/1999/02/22-rdf-syntax-ns#"
   xmlns:svg="http://www.w3.org/2000/svg"
   xmlns="http://www.w3.org/2000/svg"
   xmlns:sodipodi="http://sodipodi.sourceforge.net/DTD/sodipodi-0.dtd"
   xmlns:inkscape="http://www.inkscape.org/namespaces/inkscape"
   width="63.233345mm"
   height="69.007675mm"
   viewBox="0 0 63.233345 69.007675"
   version="1.1"
   id="svg1978"
   sodipodi:docname="module_icon_background.svg"
   inkscape:version="0.92.3 (2405546, 2018-03-11)">
  <defs
     id="defs1972" />
  <sodipodi:namedview
     id="base"
     pagecolor="#ffffff"
     bordercolor="#666666"
     borderopacity="1.0"
     inkscape:pageopacity="0.0"
     inkscape:pageshadow="2"
     inkscape:zoom="2.8"
     inkscape:cx="150.98982"
     inkscape:cy="105.54794"
     inkscape:document-units="mm"
     inkscape:current-layer="layer1"
     showgrid="false"
     inkscape:window-width="1920"
     inkscape:window-height="1017"
     inkscape:window-x="-8"
     inkscape:window-y="-8"
     inkscape:window-maximized="1"
     fit-margin-top="0"
     fit-margin-left="0"
     fit-margin-right="0"
     fit-margin-bottom="0" />
  <metadata
     id="metadata1975">
    <rdf:RDF>
      <cc:Work
         rdf:about="">
        <dc:format>image/svg+xml</dc:format>
        <dc:type
           rdf:resource="http://purl.org/dc/dcmitype/StillImage" />
        <dc:title></dc:title>
      </cc:Work>
    </rdf:RDF>
  </metadata>
  <g
     inkscape:label="Layer 1"
     inkscape:groupmode="layer"
     id="layer1"
     transform="translate(-74.216659,-114.32945)">
    <path
       style="opacity:1;vector-effect:none;fill:#888888;fill-opacity:1;stroke:none;stroke-width:1.56525064;stroke-linecap:round;stroke-linejoin:miter;stroke-miterlimit:4;stroke-dasharray:none;stroke-dashoffset:0;stroke-opacity:1;enable-background:new"
       d="M 400,432.11133 A 119.49617,119.49617 0 0 0 280.50391,551.60742 119.49617,119.49617 0 0 0 382.18945,669.61914 v 23.30859 c 0,0 94.43141,-4.57355 125.65235,-90.18359 a 119.49617,119.49617 0 0 0 11.65429,-51.13672 119.49617,119.49617 0 0 0 -2.92578,-25.5918 c -0.58907,-3.65317 -1.39623,-6.7293 -2.39648,-9.28906 A 119.49617,119.49617 0 0 0 400,432.11133 Z M 443.55859,481.25 a 17.004689,17.004689 0 0 1 17.00586,17.00586 17.004689,17.004689 0 0 1 -17.00586,17.00391 17.004689,17.004689 0 0 1 -15.68164,-10.4668 h -9.33984 c -3.76823,0 -6.41603,1.72269 -9.67383,5.85156 -3.2578,4.12887 -6.35034,10.42555 -9.39648,17.04883 -3.04611,6.62328 -6.04391,13.55086 -10.11914,19.38086 -0.0994,0.14245 -0.21474,0.27819 -0.31641,0.41992 1.32454,8.3e-4 2.34067,-9.1e-4 3.66797,0 17.61131,0.0113 26.49924,0.0277 35.10742,0.0391 a 17.004689,17.004689 0 0 1 15.75195,-10.63281 17.004689,17.004689 0 0 1 17.00586,17.00586 17.004689,17.004689 0 0 1 -17.00586,17.00586 17.004689,17.004689 0 0 1 -15.59375,-10.27344 c -8.56085,-0.008 -17.58164,-0.018 -35.27539,-0.0293 -1.23609,-8.7e-4 -2.18016,8.3e-4 -3.41406,0 0.0231,0.0325 0.0496,0.0617 0.0723,0.0957 4.07523,5.82996 7.07299,12.75957 10.11914,19.38281 3.04614,6.62328 6.13864,12.91215 9.39648,17.04102 3.2578,4.12887 5.90564,5.85742 9.67383,5.85742 h 9.5332 a 17.004689,17.004689 0 0 1 15.48828,-10.02149 17.004689,17.004689 0 0 1 17.00586,17.00586 17.004689,17.004689 0 0 1 -17.00586,17.00391 17.004689,17.004689 0 0 1 -15.86328,-10.88477 h -9.1582 c -8.51811,0 -15.3163,-4.95475 -19.96289,-10.84375 -4.64659,-5.88899 -7.9147,-12.95167 -11.01172,-19.68554 -3.09702,-6.73387 -6.02182,-13.15585 -8.94922,-17.34375 -2.92743,-4.18791 -4.96602,-5.55469 -7.42383,-5.55469 h -12.46289 a 20.289329,20.289329 0 0 1 -18.14453,11.25977 20.289329,20.289329 0 0 1 -20.29101,-20.28907 20.289329,20.289329 0 0 1 20.29101,-20.28906 20.289329,20.289329 0 0 1 18.38477,11.76758 h 12.22265 c 2.45781,0 4.4964,-1.35897 7.42383,-5.54688 2.9274,-4.1879 5.8522,-10.62159 8.94922,-17.35547 3.09702,-6.73387 6.36513,-13.79655 11.01172,-19.68554 4.64659,-5.889 11.44478,-10.8418 19.96289,-10.8418 h 9.33984 A 17.004689,17.004689 0 0 1 443.55859,481.25 Z"
       transform="scale(0.26458333)"
       id="rect1394-9-1"
       inkscape:connector-curvature="0" />
  </g>
</svg>
