<?xml version="1.0" encoding="UTF-8" standalone="no"?>
<!-- Created with Inkscape (http://www.inkscape.org/) -->

<svg
   xmlns:dc="http://purl.org/dc/elements/1.1/"
   xmlns:cc="http://creativecommons.org/ns#"
   xmlns:rdf="http://www.w3.org/1999/02/22-rdf-syntax-ns#"
   xmlns:svg="http://www.w3.org/2000/svg"
   xmlns="http://www.w3.org/2000/svg"
   xmlns:sodipodi="http://sodipodi.sourceforge.net/DTD/sodipodi-0.dtd"
   xmlns:inkscape="http://www.inkscape.org/namespaces/inkscape"
   width="14.985584mm"
   height="9.0698681mm"
   viewBox="0 0 14.985584 9.0698681"
   version="1.1"
   id="svg3539"
   inkscape:version="0.92.3 (2405546, 2018-03-11)"
   sodipodi:docname="module_icon__ixbrl_viewer__dark.svg">
  <defs
     id="defs3533" />
  <sodipodi:namedview
     id="base"
     pagecolor="#ffffff"
     bordercolor="#666666"
     borderopacity="1.0"
     inkscape:pageopacity="0.0"
     inkscape:pageshadow="2"
     inkscape:zoom="1.979899"
     inkscape:cx="132.54575"
     inkscape:cy="-76.971614"
     inkscape:document-units="mm"
     inkscape:current-layer="layer1"
     showgrid="false"
     fit-margin-top="0"
     fit-margin-left="0"
     fit-margin-right="0"
     fit-margin-bottom="0"
     inkscape:window-width="1366"
     inkscape:window-height="705"
     inkscape:window-x="-8"
     inkscape:window-y="-8"
     inkscape:window-maximized="1" />
  <metadata
     id="metadata3536">
    <rdf:RDF>
      <cc:Work
         rdf:about="">
        <dc:format>image/svg+xml</dc:format>
        <dc:type
           rdf:resource="http://purl.org/dc/dcmitype/StillImage" />
        <dc:title></dc:title>
      </cc:Work>
    </rdf:RDF>
  </metadata>
  <g
     inkscape:label="Layer 1"
     inkscape:groupmode="layer"
     id="layer1"
     transform="translate(228.98684,35.618267)">
    <path
       inkscape:connector-curvature="0"
       style="opacity:1;vector-effect:none;fill:#303030;fill-opacity:1;stroke:none;stroke-width:1.04132938;stroke-linecap:butt;stroke-linejoin:miter;stroke-miterlimit:4;stroke-dasharray:none;stroke-dashoffset:0;stroke-opacity:1;enable-background:new"
       d="m -222.78785,-35.613299 a 6.3788414,4.3569977 5.4275777 0 0 -3.56282,0.64605 6.3788414,4.3569977 5.4275777 0 0 -1.43015,6.0259 6.3788414,4.3569977 5.4275777 0 0 8.88618,1.43011 6.3788414,4.3569977 5.4275777 0 0 1.05331,-0.61323 l 3.84007,1.57607 -2.37826,-5.19207 a 6.3788414,4.3569977 5.4275777 0 0 -1.08615,-1.79669 6.3788414,4.3569977 5.4275777 0 0 -5.32218,-2.07614 z m 0.0701,1.85439 a 3.6731588,2.5089108 5.4275678 0 1 3.065,1.19591 3.6731588,2.5089108 5.4275678 0 1 -0.82368,3.47006 3.6731588,2.5089108 5.4275678 0 1 -5.11625,-0.82255 3.6731588,2.5089108 5.4275678 0 1 0.82369,-3.47005 3.6731588,2.5089108 5.4275678 0 1 1.68579,-0.37224 3.6731588,2.5089108 5.4275678 0 1 0.36545,-10e-4 z m 0.18216,1.09409 a 1.4669095,1.4669095 0 0 0 -1.059,0.42994 1.4669095,1.4669095 0 0 0 0,2.07387 1.4669095,1.4669095 0 0 0 2.075,0 1.4669095,1.4669095 0 0 0 0,-2.07387 1.4669095,1.4669095 0 0 0 -1.016,-0.42994 z"
       id="path9277-9-8" />
  </g>
</svg>
