<?xml version="1.0" encoding="UTF-8" standalone="no"?>
<!-- Created with Inkscape (http://www.inkscape.org/) -->

<svg
   xmlns:dc="http://purl.org/dc/elements/1.1/"
   xmlns:cc="http://creativecommons.org/ns#"
   xmlns:rdf="http://www.w3.org/1999/02/22-rdf-syntax-ns#"
   xmlns:svg="http://www.w3.org/2000/svg"
   xmlns="http://www.w3.org/2000/svg"
   xmlns:sodipodi="http://sodipodi.sourceforge.net/DTD/sodipodi-0.dtd"
   xmlns:inkscape="http://www.inkscape.org/namespaces/inkscape"
   width="8.9616652mm"
   height="16.316311mm"
   viewBox="0 0 8.9616652 16.316311"
   version="1.1"
   id="svg7494"
   inkscape:version="0.92.3 (2405546, 2018-03-11)"
   sodipodi:docname="module_icon__financial_analysis__dark.svg">
  <defs
     id="defs7488" />
  <sodipodi:namedview
     id="base"
     pagecolor="#ffffff"
     bordercolor="#666666"
     borderopacity="1.0"
     inkscape:pageopacity="0.0"
     inkscape:pageshadow="2"
     inkscape:zoom="0.35"
     inkscape:cx="-840.20742"
     inkscape:cy="-17.737449"
     inkscape:document-units="mm"
     inkscape:current-layer="layer1"
     showgrid="false"
     fit-margin-top="0"
     fit-margin-left="0"
     fit-margin-right="0"
     fit-margin-bottom="0"
     inkscape:window-width="1366"
     inkscape:window-height="705"
     inkscape:window-x="-8"
     inkscape:window-y="-8"
     inkscape:window-maximized="1" />
  <metadata
     id="metadata7491">
    <rdf:RDF>
      <cc:Work
         rdf:about="">
        <dc:format>image/svg+xml</dc:format>
        <dc:type
           rdf:resource="http://purl.org/dc/dcmitype/StillImage" />
        <dc:title></dc:title>
      </cc:Work>
    </rdf:RDF>
  </metadata>
  <g
     inkscape:label="Layer 1"
     inkscape:groupmode="layer"
     id="layer1"
     transform="translate(-186.01917,-127.82399)">
    <path
       style="color:#000000;font-style:normal;font-variant:normal;font-weight:normal;font-stretch:normal;font-size:medium;line-height:normal;font-family:sans-serif;font-variant-ligatures:normal;font-variant-position:normal;font-variant-caps:normal;font-variant-numeric:normal;font-variant-alternates:normal;font-feature-settings:normal;text-indent:0;text-align:start;text-decoration:none;text-decoration-line:none;text-decoration-style:solid;text-decoration-color:#000000;letter-spacing:normal;word-spacing:normal;text-transform:none;writing-mode:lr-tb;direction:ltr;text-orientation:mixed;dominant-baseline:auto;baseline-shift:baseline;text-anchor:start;white-space:normal;shape-padding:0;clip-rule:nonzero;display:inline;overflow:visible;visibility:visible;opacity:1;isolation:auto;mix-blend-mode:normal;color-interpolation:sRGB;color-interpolation-filters:linearRGB;solid-color:#000000;solid-opacity:1;vector-effect:none;fill:#303030;fill-opacity:1;fill-rule:nonzero;stroke:none;stroke-width:1.57825136;stroke-linecap:butt;stroke-linejoin:miter;stroke-miterlimit:4;stroke-dasharray:none;stroke-dashoffset:0;stroke-opacity:1;color-rendering:auto;image-rendering:auto;shape-rendering:auto;text-rendering:auto;enable-background:accumulate"
       d="m 187.47637,127.82399 a 1.2644683,1.2644683 0 0 0 -1.26452,1.26452 1.2644683,1.2644683 0 0 0 1.06349,1.24643 c 0.0815,0.26648 0.16224,0.53061 0.2739,0.89917 0.0705,0.23263 0.17536,0.58256 0.25477,0.84543 -1.12332,0.8804 -1.8143,2.25451 -1.78388,3.74654 0.0433,2.12482 1.53567,3.95623 3.60752,4.42971 0.93792,0.21434 1.88804,0.12359 2.73783,-0.2124 0.094,0.31087 0.21508,0.71303 0.29715,0.98392 0.10708,0.35348 0.18301,0.60189 0.26249,0.86248 a 1.2644683,1.2644683 0 0 0 -0.47334,0.98599 1.2644683,1.2644683 0 0 0 1.26453,1.26452 1.2644683,1.2644683 0 0 0 1.26452,-1.26452 1.2644683,1.2644683 0 0 0 -1.06402,-1.24695 c -0.0815,-0.2664 -0.1623,-0.53028 -0.2739,-0.89866 -0.0979,-0.32321 -0.23974,-0.79602 -0.35399,-1.1746 0.62482,-0.42829 1.15028,-1.01224 1.51051,-1.72186 l -1.40816,-0.71468 c -0.15592,0.30712 -0.35828,0.57763 -0.59378,0.8077 -0.0928,-0.3083 -0.16595,-0.5504 -0.25993,-0.86248 -0.6558,-2.17774 -1.09283,-3.63396 -1.30482,-4.33979 0.86717,0.16431 1.6451,0.69909 2.10013,1.51154 l 1.37666,-0.77153 c -0.77886,-1.39071 -2.19814,-2.25238 -3.72433,-2.3611 -0.50874,-0.0362 -1.02881,0.011 -1.54152,0.15038 -0.25635,0.0697 -0.50249,0.16005 -0.73742,0.26924 -0.0534,-0.17641 -0.12785,-0.42469 -0.17671,-0.58602 -0.10697,-0.3531 -0.18259,-0.60199 -0.26202,-0.86299 a 1.2644683,1.2644683 0 0 0 0.47337,-0.98547 1.2644683,1.2644683 0 0 0 -1.26453,-1.26452 z m 2.68253,4.88859 c 0.15862,0.52851 0.69427,2.31543 1.39629,4.64674 0.1275,0.4234 0.22868,0.75675 0.35346,1.17047 -0.3184,0.1421 -0.66114,0.22875 -1.01439,0.25528 -0.23474,-0.78143 -0.62555,-2.08224 -1.2573,-4.1801 -0.16854,-0.55966 -0.30514,-1.01039 -0.46715,-1.5472 0.21357,-0.11863 0.44379,-0.21412 0.68832,-0.2806 0.10006,-0.0272 0.20031,-0.0477 0.30077,-0.0646 z m -1.84589,1.0542 c 0.12084,0.40122 0.2181,0.72319 0.34158,1.13326 0.56904,1.88966 0.85473,2.8402 1.13276,3.76566 -1.27172,-0.37776 -2.16165,-1.52904 -2.18903,-2.87114 -0.0156,-0.76342 0.2518,-1.47542 0.71469,-2.02778 z"
       id="path13822"
       inkscape:connector-curvature="0" />
  </g>
</svg>
