<?xml version="1.0" encoding="UTF-8" standalone="no"?>
<!-- Created with Inkscape (http://www.inkscape.org/) -->

<svg
   xmlns:dc="http://purl.org/dc/elements/1.1/"
   xmlns:cc="http://creativecommons.org/ns#"
   xmlns:rdf="http://www.w3.org/1999/02/22-rdf-syntax-ns#"
   xmlns:svg="http://www.w3.org/2000/svg"
   xmlns="http://www.w3.org/2000/svg"
   xmlns:sodipodi="http://sodipodi.sourceforge.net/DTD/sodipodi-0.dtd"
   xmlns:inkscape="http://www.inkscape.org/namespaces/inkscape"
   width="12.965617mm"
   height="15.46932mm"
   viewBox="0 0 12.965617 15.46932"
   version="1.1"
   id="svg5247"
   inkscape:version="0.92.3 (2405546, 2018-03-11)"
   sodipodi:docname="module_icon__api_explorer__light.svg">
  <defs
     id="defs5241" />
  <sodipodi:namedview
     id="base"
     pagecolor="#ffffff"
     bordercolor="#666666"
     borderopacity="1.0"
     inkscape:pageopacity="0.0"
     inkscape:pageshadow="2"
     inkscape:zoom="0.35"
     inkscape:cx="-475.49805"
     inkscape:cy="54.947591"
     inkscape:document-units="mm"
     inkscape:current-layer="layer1"
     showgrid="false"
     fit-margin-top="0"
     fit-margin-left="0"
     fit-margin-right="0"
     fit-margin-bottom="0"
     inkscape:window-width="1366"
     inkscape:window-height="705"
     inkscape:window-x="-8"
     inkscape:window-y="-8"
     inkscape:window-maximized="1" />
  <metadata
     id="metadata5244">
    <rdf:RDF>
      <cc:Work
         rdf:about="">
        <dc:format>image/svg+xml</dc:format>
        <dc:type
           rdf:resource="http://purl.org/dc/dcmitype/StillImage" />
        <dc:title></dc:title>
      </cc:Work>
    </rdf:RDF>
  </metadata>
  <g
     inkscape:label="Layer 1"
     inkscape:groupmode="layer"
     id="layer1"
     transform="translate(-89.523145,-147.90223)">
    <path
       inkscape:connector-curvature="0"
       style="color:#000000;font-style:normal;font-variant:normal;font-weight:normal;font-stretch:normal;font-size:medium;line-height:normal;font-family:sans-serif;font-variant-ligatures:normal;font-variant-position:normal;font-variant-caps:normal;font-variant-numeric:normal;font-variant-alternates:normal;font-feature-settings:normal;text-indent:0;text-align:start;text-decoration:none;text-decoration-line:none;text-decoration-style:solid;text-decoration-color:#000000;letter-spacing:normal;word-spacing:normal;text-transform:none;writing-mode:lr-tb;direction:ltr;text-orientation:mixed;dominant-baseline:auto;baseline-shift:baseline;text-anchor:start;white-space:normal;shape-padding:0;clip-rule:nonzero;display:inline;overflow:visible;visibility:visible;opacity:1;isolation:auto;mix-blend-mode:normal;color-interpolation:sRGB;color-interpolation-filters:linearRGB;solid-color:#000000;solid-opacity:1;vector-effect:none;fill:#ffffff;fill-opacity:1;fill-rule:nonzero;stroke:none;stroke-width:1.40483129;stroke-linecap:butt;stroke-linejoin:miter;stroke-miterlimit:4;stroke-dasharray:none;stroke-dashoffset:0;stroke-opacity:1;color-rendering:auto;image-rendering:auto;shape-rendering:auto;text-rendering:auto;enable-background:accumulate"
       d="m 94.716109,147.90223 -5.192964,5.19297 4.962488,4.963 0.994254,-0.99425 -3.970817,-3.96875 4.199226,-4.19923 z m 1.781286,3.40031 a 1.4365592,1.4365592 0 0 0 -1.436606,1.43661 1.4365592,1.4365592 0 0 0 1.436606,1.4366 1.4365592,1.4365592 0 0 0 0.167949,-0.0119 l 2.619479,2.61948 a 1.6171863,1.6171863 0 0 0 -0.02997,0.30799 1.6171863,1.6171863 0 0 0 0.242879,0.85008 l -2.61121,2.61224 a 1.4365592,1.4365592 0 0 0 -0.389125,-0.0553 1.4365592,1.4365592 0 0 0 -1.436606,1.4366 1.4365592,1.4365592 0 0 0 1.436606,1.43661 1.4365592,1.4365592 0 0 0 1.436605,-1.43661 1.4365592,1.4365592 0 0 0 -0.05426,-0.39016 l 2.844268,-2.84427 a 1.6171863,1.6171863 0 0 0 0.1478,0.008 1.6171863,1.6171863 0 0 0 1.61695,-1.61695 1.6171863,1.6171863 0 0 0 -1.61695,-1.61747 1.6171863,1.6171863 0 0 0 -0.73329,0.17621 l -2.328541,-2.32962 a 1.4365592,1.4365592 0 0 0 0.124023,-0.58136 1.4365592,1.4365592 0 0 0 -1.436605,-1.4366 z"
       id="path18211" />
  </g>
</svg>
