<?xml version="1.0" encoding="UTF-8" standalone="no"?>
<!-- Created with Inkscape (http://www.inkscape.org/) -->

<svg
   xmlns:dc="http://purl.org/dc/elements/1.1/"
   xmlns:cc="http://creativecommons.org/ns#"
   xmlns:rdf="http://www.w3.org/1999/02/22-rdf-syntax-ns#"
   xmlns:svg="http://www.w3.org/2000/svg"
   xmlns="http://www.w3.org/2000/svg"
   xmlns:sodipodi="http://sodipodi.sourceforge.net/DTD/sodipodi-0.dtd"
   xmlns:inkscape="http://www.inkscape.org/namespaces/inkscape"
   width="14.40429mm"
   height="11.4241mm"
   viewBox="0 0 14.40429 11.4241"
   version="1.1"
   id="svg6379"
   inkscape:version="0.92.3 (2405546, 2018-03-11)"
   sodipodi:docname="module_icon__term_rules_manager__light.svg">
  <defs
     id="defs6373" />
  <sodipodi:namedview
     id="base"
     pagecolor="#ffffff"
     bordercolor="#666666"
     borderopacity="1.0"
     inkscape:pageopacity="0.0"
     inkscape:pageshadow="2"
     inkscape:zoom="0.35"
     inkscape:cx="315.79213"
     inkscape:cy="-124.12544"
     inkscape:document-units="mm"
     inkscape:current-layer="layer1"
     showgrid="false"
     fit-margin-top="0"
     fit-margin-left="0"
     fit-margin-right="0"
     fit-margin-bottom="0"
     inkscape:window-width="1366"
     inkscape:window-height="705"
     inkscape:window-x="-8"
     inkscape:window-y="-8"
     inkscape:window-maximized="1" />
  <metadata
     id="metadata6376">
    <rdf:RDF>
      <cc:Work
         rdf:about="">
        <dc:format>image/svg+xml</dc:format>
        <dc:type
           rdf:resource="http://purl.org/dc/dcmitype/StillImage" />
        <dc:title></dc:title>
      </cc:Work>
    </rdf:RDF>
  </metadata>
  <g
     inkscape:label="Layer 1"
     inkscape:groupmode="layer"
     id="layer1"
     transform="translate(119.83905,-104.56771)">
    <path
       inkscape:connector-curvature="0"
       style="fill:#ffffff;fill-opacity:1;stroke-width:0.51928622"
       d="m -115.57626,104.56771 v 1.03817 h -2.07688 c -0.28559,0 -0.51935,0.23374 -0.51935,0.51935 0,0.28562 0.23376,0.51935 0.51935,0.51935 h 2.07688 v 1.0387 h 3.1161 v -3.11557 z m 4.15427,0 v 3.11557 h 0.17931 c 0.67508,0 1.2464,-0.43634 1.46452,-1.0387 h 2.17041 v -1.0387 h -2.17041 c -0.21291,-0.60238 -0.78422,-1.03817 -1.46452,-1.03817 z m -4.15427,4.15426 v 1.03818 h -3.74343 c -0.28562,0 -0.51936,0.23375 -0.51936,0.51935 0,0.28561 0.23374,0.51935 0.51936,0.51935 h 3.74343 v 1.0387 h 3.1161 v -3.11558 z m 4.15427,0 v 3.11558 h 0.17931 c 0.67508,0 1.2464,-0.43632 1.46452,-1.0387 h 4.3434 v -1.0387 h -4.3434 c -0.21291,-0.60238 -0.78422,-1.03818 -1.46452,-1.03818 z m -4.15427,4.15427 v 1.03818 h -2.07688 c -0.28559,0 -0.51935,0.23375 -0.51935,0.51935 0,0.2856 0.23376,0.51935 0.51935,0.51935 h 2.07688 v 1.03869 h 3.1161 v -3.11557 z m 4.15427,0 v 3.11557 h 0.17931 c 0.67508,0 1.2464,-0.43631 1.46452,-1.03869 h 2.17041 v -1.0387 h -2.17041 c -0.21812,-0.60235 -0.78944,-1.03818 -1.46452,-1.03818 z"
       id="path14997-7" />
  </g>
</svg>
